<svg width="32" height="32" viewBox="0 0 32 32" fill="none" xmlns="http://www.w3.org/2000/svg">
<rect x="1" y="1" width="30" height="30" rx="15" stroke="#BF0603" stroke-width="2"/>
<path d="M16.082 21.4735L16.082 20.2664L16.082 10.3294C16.082 10.2845 16.0455 10.248 16.0006 10.248C15.9557 10.248 15.9192 10.2845 15.9192 10.3294L15.9192 20.2664L15.9192 21.4735L15.0657 20.62L12.3374 17.8918L12.3374 17.8917C12.3056 17.86 12.2541 17.8599 12.2223 17.8917C12.2223 17.8917 12.2223 17.8917 12.2223 17.8917M16.082 21.4735L12.2223 17.8917M16.082 21.4735L16.9355 20.62L19.6638 17.8917C19.6956 17.8599 19.7471 17.8599 19.7789 17.8917C19.8107 17.9234 19.8107 17.975 19.7789 18.0067L16.0581 21.7275C16.0263 21.7593 15.9748 21.7593 15.943 21.7275L15.5895 22.0811L15.943 21.7275L12.2224 18.007M16.082 21.4735L12.2224 18.007M12.2223 17.8917C12.2063 17.9078 12.1984 17.9278 12.1984 17.9493C12.1984 17.9707 12.2063 17.9908 12.2224 18.007M12.2223 17.8917L12.2224 18.007" fill="#BF0603" stroke="#BF0603"/>
</svg>
