<svg width="19" height="25" viewBox="0 0 19 25" fill="none" xmlns="http://www.w3.org/2000/svg">
<path d="M15.867 13.2937C15.867 13.3947 15.7154 16.3761 19 17.9426C18.3936 19.8123 16.2713 23.9559 13.7952 23.9559C12.3803 23.9559 11.5718 23.0463 9.95479 23.0463C8.28723 23.0463 7.37766 23.9559 6.11436 23.9559C3.68883 24.057 1.36436 19.5091 0.707447 17.6394C0.202128 16.2245 0 14.8602 0 13.5463C0 9.04901 2.98138 6.87614 5.81117 6.82561C7.17553 6.82561 8.89362 7.78571 9.6516 7.78571C10.359 7.78571 12.3298 6.62348 14.1489 6.77507C16.0186 6.92667 17.4335 7.63412 18.3936 8.99848C16.7261 10.0596 15.867 11.424 15.867 13.2937ZM13.0372 5.00646C12.0266 6.16869 10.8138 6.82561 9.5 6.72454C9.39894 5.36018 9.90426 4.09688 10.8138 3.08624C11.6223 2.17667 13.0372 1.41869 14.25 1.31763C14.25 1.87348 14.4016 3.38944 13.0372 5.00646Z" fill="#FFFFFC"/>
</svg>
