<svg width="16" height="17" viewBox="0 0 16 17" fill="none" xmlns="http://www.w3.org/2000/svg">
<path d="M12.6933 15.54H10.7733C10.6667 15.54 10.56 15.5933 10.4533 15.7C10.3467 15.8067 10.2933 15.9222 10.2933 16.0467C10.2933 16.1711 10.3467 16.2778 10.4533 16.3667C10.56 16.4556 10.6667 16.5 10.7733 16.5H12.6933C12.8356 16.5 12.9511 16.4556 13.04 16.3667C13.1289 16.2778 13.1733 16.1711 13.1733 16.0467C13.1733 15.9222 13.1289 15.8067 13.04 15.7C12.9511 15.5933 12.8356 15.54 12.6933 15.54ZM8.90667 15.54H7.04C6.89778 15.54 6.78222 15.5933 6.69333 15.7C6.60444 15.8067 6.56 15.9222 6.56 16.0467C6.56 16.1711 6.60444 16.2778 6.69333 16.3667C6.78222 16.4556 6.89778 16.5 7.04 16.5H8.90667C9.04889 16.5 9.16444 16.4556 9.25333 16.3667C9.34222 16.2778 9.38667 16.1711 9.38667 16.0467C9.38667 15.9222 9.34222 15.8067 9.25333 15.7C9.16444 15.5933 9.04889 15.54 8.90667 15.54ZM15.52 7.06C15.4133 7.06 15.3067 7.10444 15.2 7.19333C15.0933 7.28222 15.04 7.39778 15.04 7.54V9.40667C15.04 9.54889 15.0933 9.66444 15.2 9.75333C15.3067 9.84222 15.4222 9.88667 15.5467 9.88667C15.6711 9.88667 15.7778 9.84222 15.8667 9.75333C15.9556 9.66444 16 9.54889 16 9.40667V7.54C16 7.39778 15.9556 7.28222 15.8667 7.19333C15.7778 7.10444 15.6622 7.06 15.52 7.06ZM15.52 10.7933C15.4133 10.7933 15.3067 10.8467 15.2 10.9533C15.0933 11.06 15.04 11.1667 15.04 11.2733V13.14C15.04 13.2822 15.0933 13.3978 15.2 13.4867C15.3067 13.5756 15.4222 13.62 15.5467 13.62C15.6711 13.62 15.7778 13.5756 15.8667 13.4867C15.9556 13.3978 16 13.2822 16 13.14V11.2733C16 11.1667 15.9556 11.06 15.8667 10.9533C15.7778 10.8467 15.6622 10.7933 15.52 10.7933ZM5.17333 15.54H4.69333V15.1133C4.69333 14.9711 4.64889 14.8556 4.56 14.7667C4.47111 14.6778 4.35556 14.6333 4.21333 14.6333C4.07111 14.6333 3.95556 14.6778 3.86667 14.7667C3.77778 14.8556 3.73333 14.9711 3.73333 15.1133V16.02C3.73333 16.1622 3.77778 16.2778 3.86667 16.3667C3.95556 16.4556 4.07111 16.5 4.21333 16.5H5.17333C5.28 16.5 5.37778 16.4556 5.46667 16.3667C5.55556 16.2778 5.6 16.1711 5.6 16.0467C5.6 15.9222 5.55556 15.8067 5.46667 15.7C5.37778 15.5933 5.28 15.54 5.17333 15.54ZM15.52 4.23333H14.6133C14.4711 4.23333 14.3556 4.27778 14.2667 4.36667C14.1778 4.45555 14.1333 4.57111 14.1333 4.71333C14.1333 4.85555 14.1778 4.97111 14.2667 5.06C14.3556 5.14889 14.4711 5.19333 14.6133 5.19333H15.04V5.67333C15.04 5.78 15.0933 5.87778 15.2 5.96667C15.3067 6.05555 15.4222 6.1 15.5467 6.1C15.6711 6.1 15.7778 6.05555 15.8667 5.96667C15.9556 5.87778 16 5.78 16 5.67333V4.71333C16 4.57111 15.9556 4.45555 15.8667 4.36667C15.7778 4.27778 15.6622 4.23333 15.52 4.23333ZM15.52 14.6333C15.4133 14.6333 15.3067 14.6778 15.2 14.7667C15.0933 14.8556 15.04 14.9711 15.04 15.1133V15.54H14.6133C14.4711 15.54 14.3556 15.5933 14.2667 15.7C14.1778 15.8067 14.1333 15.9222 14.1333 16.0467C14.1333 16.1711 14.1778 16.2778 14.2667 16.3667C14.3556 16.4556 14.4711 16.5 14.6133 16.5H15.52C15.6622 16.5 15.7778 16.4556 15.8667 16.3667C15.9556 16.2778 16 16.1622 16 16.02V15.1133C16 14.9711 15.9556 14.8556 15.8667 14.7667C15.7778 14.6778 15.6622 14.6333 15.52 14.6333ZM12.6933 4.23333H12.2133V0.979999C12.2133 0.837776 12.16 0.72222 12.0533 0.633332C11.9467 0.544443 11.84 0.499998 11.7333 0.499998H0.48C0.337778 0.499998 0.222222 0.544443 0.133333 0.633332C0.0444444 0.72222 0 0.837776 0 0.979999V12.2333C0 12.34 0.0444444 12.4467 0.133333 12.5533C0.222222 12.66 0.337778 12.7133 0.48 12.7133H3.73333V13.14C3.73333 13.2822 3.77778 13.3978 3.86667 13.4867C3.95556 13.5756 4.07111 13.62 4.21333 13.62C4.35556 13.62 4.47111 13.5756 4.56 13.4867C4.64889 13.3978 4.69333 13.2822 4.69333 13.14V5.19333H12.6933C12.8356 5.19333 12.9511 5.14889 13.04 5.06C13.1289 4.97111 13.1733 4.85555 13.1733 4.71333C13.1733 4.57111 13.1289 4.45555 13.04 4.36667C12.9511 4.27778 12.8356 4.23333 12.6933 4.23333ZM11.2533 4.23333H4.21333C4.07111 4.23333 3.95556 4.27778 3.86667 4.36667C3.77778 4.45555 3.73333 4.57111 3.73333 4.71333V11.7533H0.96V1.46H11.2533V4.23333Z" fill="#252422"/>
</svg>
