<svg width="21" height="20" viewBox="0 0 21 20" fill="none" xmlns="http://www.w3.org/2000/svg">
<path d="M20.6667 10.1333C20.6667 9.64444 20.5 9.23333 20.1667 8.9C19.8333 8.56666 19.4222 8.4 18.9333 8.4H3.79999V3C3.79999 2.55555 3.95555 2.17777 4.26666 1.86666C4.48888 1.64444 4.74443 1.51111 5.03332 1.46666C5.32221 1.42222 5.62221 1.44444 5.93332 1.53333C5.53332 2.15555 5.37777 2.84444 5.46666 3.6C5.55555 4.35555 5.86666 5 6.39999 5.53333L6.53332 5.73333C6.66666 5.82222 6.8111 5.86666 6.96666 5.86666C7.12221 5.86666 7.24443 5.82222 7.33332 5.73333L11.1333 1.93333C11.2667 1.8 11.3333 1.65555 11.3333 1.5C11.3333 1.34444 11.2667 1.2 11.1333 1.06666L11 0.933331C10.4222 0.355553 9.72221 0.0444412 8.89999 -3.8147e-06C8.07777 -0.0444469 7.35555 0.177774 6.73332 0.666664C6.19999 0.355553 5.62221 0.23333 4.99999 0.299997C4.37777 0.366663 3.84443 0.622219 3.39999 1.06666C2.86666 1.6 2.59999 2.24444 2.59999 3V8.4H2.39999C1.9111 8.4 1.49999 8.56666 1.16666 8.9C0.833323 9.23333 0.666656 9.64444 0.666656 10.1333C0.666656 10.5333 0.777768 10.8778 0.99999 11.1667C1.22221 11.4556 1.48888 11.6667 1.79999 11.8V13.0667C1.79999 14.1333 2.08888 15.1111 2.66666 16C3.24443 16.8889 3.97777 17.5778 4.86666 18.0667L4.33332 19.1333C4.24443 19.3111 4.23332 19.4667 4.29999 19.6C4.36666 19.7333 4.46666 19.8444 4.59999 19.9333C4.73332 20.0222 4.87777 20.0333 5.03332 19.9667C5.18888 19.9 5.3111 19.8 5.39999 19.6667L5.99999 18.4667C6.44443 18.5556 6.9111 18.6 7.39999 18.6H13.9333C14.4222 18.6 14.8889 18.5556 15.3333 18.4667L15.9333 19.6667C16.0222 19.8 16.1444 19.9 16.3 19.9667C16.4555 20.0333 16.6 20.0222 16.7333 19.9333C16.8667 19.8444 16.9667 19.7333 17.0333 19.6C17.1 19.4667 17.0889 19.3111 17 19.1333L16.4667 18.0667C17.3555 17.5778 18.0889 16.8889 18.6667 16C19.2444 15.1111 19.5333 14.1333 19.5333 13.0667V11.8C19.8444 11.6667 20.1111 11.4556 20.3333 11.1667C20.5555 10.8778 20.6667 10.5333 20.6667 10.1333ZM9.86666 1.53333L6.99999 4.46666C6.68888 4.02222 6.55555 3.55555 6.59999 3.06666C6.64443 2.57777 6.84443 2.15555 7.19999 1.8C7.55555 1.44444 7.98888 1.24444 8.49999 1.2C9.0111 1.15555 9.46666 1.26666 9.86666 1.53333ZM2.39999 9.6H18.9333C19.0667 9.6 19.1889 9.65555 19.3 9.76666C19.4111 9.87778 19.4667 10.0111 19.4667 10.1667C19.4667 10.3222 19.4111 10.4556 19.3 10.5667C19.1889 10.6778 19.0667 10.7333 18.9333 10.7333H2.39999C2.26666 10.7333 2.14443 10.6778 2.03332 10.5667C1.92221 10.4556 1.86666 10.3222 1.86666 10.1667C1.86666 10.0111 1.92221 9.87778 2.03332 9.76666C2.14443 9.65555 2.26666 9.6 2.39999 9.6ZM18.3333 13.0667C18.3333 13.8667 18.1333 14.6 17.7333 15.2667C17.3333 15.9333 16.8 16.4667 16.1333 16.8667C15.4667 17.2667 14.7333 17.4667 13.9333 17.4667H7.39999C6.59999 17.4667 5.86666 17.2667 5.19999 16.8667C4.53332 16.4667 3.99999 15.9333 3.59999 15.2667C3.19999 14.6 2.99999 13.8667 2.99999 13.0667V11.9333H18.3333V13.0667ZM9.13332 5.93333C9.13332 6.11111 9.18888 6.25555 9.29999 6.36666C9.4111 6.47777 9.54443 6.53333 9.69999 6.53333C9.85555 6.53333 9.98888 6.47777 10.1 6.36666C10.2111 6.25555 10.2667 6.11111 10.2667 5.93333C10.2667 5.75555 10.2111 5.61111 10.1 5.5C9.98888 5.38889 9.85555 5.33333 9.69999 5.33333C9.54443 5.33333 9.4111 5.38889 9.29999 5.5C9.18888 5.61111 9.13332 5.75555 9.13332 5.93333ZM10.8 4.26666C10.8 4.44444 10.8555 4.58889 10.9667 4.7C11.0778 4.81111 11.2111 4.86666 11.3667 4.86666C11.5222 4.86666 11.6555 4.81111 11.7667 4.7C11.8778 4.58889 11.9333 4.44444 11.9333 4.26666C11.9333 4.08889 11.8778 3.94444 11.7667 3.83333C11.6555 3.72222 11.5222 3.66666 11.3667 3.66666C11.2111 3.66666 11.0778 3.72222 10.9667 3.83333C10.8555 3.94444 10.8 4.08889 10.8 4.26666ZM11.2 6.33333C11.2 6.46666 11.2555 6.6 11.3667 6.73333C11.4778 6.86666 11.6111 6.93333 11.7667 6.93333C11.9222 6.93333 12.0555 6.86666 12.1667 6.73333C12.2778 6.6 12.3333 6.45555 12.3333 6.3C12.3333 6.14444 12.2778 6.01111 12.1667 5.9C12.0555 5.78889 11.9222 5.73333 11.7667 5.73333C11.6111 5.73333 11.4778 5.78889 11.3667 5.9C11.2555 6.01111 11.2 6.15555 11.2 6.33333Z" fill="#252422"/>
</svg>
