<svg width="21" height="14" viewBox="0 0 21 14" fill="none" xmlns="http://www.w3.org/2000/svg">
<path d="M17.8667 3.2667H9.06666C8.62222 3.2667 8.2 3.40003 7.8 3.6667C7.71111 3.00003 7.43333 2.45559 6.96666 2.03337C6.5 1.61114 5.95555 1.40003 5.33333 1.40003C4.84444 1.40003 4.4 1.51114 3.99999 1.73337V0.733365C3.99999 0.555588 3.94444 0.411143 3.83333 0.300032C3.72222 0.188921 3.57777 0.133366 3.4 0.133366H0.933328C0.75555 0.133366 0.611106 0.188921 0.499995 0.300032C0.388884 0.411143 0.333328 0.555588 0.333328 0.733365V13.2667C0.333328 13.4445 0.388884 13.5889 0.499995 13.7C0.611106 13.8111 0.75555 13.8667 0.933328 13.8667H3.4C3.57777 13.8667 3.72222 13.8111 3.83333 13.7C3.94444 13.5889 3.99999 13.4445 3.99999 13.2667V11.3334H16.6667V13.2667C16.6667 13.4445 16.7222 13.5889 16.8333 13.7C16.9444 13.8111 17.0889 13.8667 17.2667 13.8667H19.7333C19.9111 13.8667 20.0556 13.8111 20.1667 13.7C20.2778 13.5889 20.3333 13.4445 20.3333 13.2667V5.73337C20.3333 5.0667 20.0889 4.48892 19.6 4.00003C19.1111 3.51114 18.5333 3.2667 17.8667 3.2667ZM5.33333 2.53337C5.68888 2.53337 5.98888 2.6667 6.23333 2.93336C6.47777 3.20003 6.6 3.51114 6.6 3.8667C6.6 4.22225 6.47777 4.52225 6.23333 4.7667C5.98888 5.01114 5.68888 5.13337 5.33333 5.13337C4.97777 5.13337 4.66666 5.01114 4.4 4.7667C4.13333 4.52225 3.99999 4.22225 3.99999 3.8667C3.99999 3.51114 4.13333 3.20003 4.4 2.93336C4.66666 2.6667 4.97777 2.53337 5.33333 2.53337ZM3.99999 5.93337C4.4 6.20003 4.83333 6.33337 5.29999 6.33337C5.76666 6.33337 6.2 6.20003 6.6 5.93337V7.6667H3.99999V5.93337ZM19.1333 12.6667H17.8V10.7334C17.8 10.6 17.7444 10.4778 17.6333 10.3667C17.5222 10.2556 17.4 10.2 17.2667 10.2H3.4C3.26666 10.2 3.14444 10.2556 3.03333 10.3667C2.92222 10.4778 2.86666 10.6 2.86666 10.7334V12.6667H1.53333V1.33337H2.86666V8.2667C2.86666 8.40003 2.92222 8.53337 3.03333 8.6667C3.14444 8.80003 3.26666 8.8667 3.4 8.8667H19.1333V12.6667ZM19.1333 7.6667H7.8V5.73337C7.8 5.37781 7.92222 5.07781 8.16666 4.83337C8.41111 4.58892 8.71111 4.4667 9.06666 4.4667H17.8667C18.2222 4.4667 18.5222 4.58892 18.7667 4.83337C19.0111 5.07781 19.1333 5.37781 19.1333 5.73337V7.6667Z" fill="#252422"/>
</svg>
