<svg width="81" height="80" viewBox="0 0 81 80" fill="none" xmlns="http://www.w3.org/2000/svg">
<path fill-rule="evenodd" clip-rule="evenodd" d="M41.1605 62.3789L26.7591 73.9783L26.7555 73.9814C23.9948 76.2647 19.8205 74.2982 19.8205 70.7136V62.0956H12.6375C7.14189 62.0956 2.69049 57.6378 2.69049 52.1432V26.4289C2.69049 21.6121 6.10829 17.5984 10.6507 16.6757C12.1713 16.3668 13.6544 17.3491 13.9633 18.8697C14.2722 20.3903 13.2899 21.8734 11.7693 22.1823C9.79676 22.583 8.30954 24.3337 8.30954 26.4289V52.1432C8.30954 54.5384 10.2492 56.4766 12.6375 56.4766H21.2025C23.5446 56.4766 25.4395 58.3761 25.4395 60.7147V67.8263L37.5954 58.0353L37.9779 57.7138C39.1656 56.7154 40.9379 56.8688 41.9363 58.0566C42.9348 59.2443 42.7813 61.0166 41.5936 62.015L41.1605 62.3789ZM40.704 53.1266L40.6853 53.1109C39.9046 52.4551 38.9177 52.0956 37.8981 52.0956H26.9286C21.432 52.0956 16.9762 47.6398 16.9762 42.1432V16.4289C16.9762 10.9324 21.432 6.47656 26.9286 6.47656H66.9286C72.4251 6.47656 76.881 10.9324 76.881 16.4289V42.1432C76.881 47.6398 72.4251 52.0956 66.9286 52.0956H61.1667V60.7056C61.1667 64.2935 56.991 66.2523 54.233 63.976L54.2289 63.9726L40.704 53.1266ZM26.9286 12.0956C24.5354 12.0956 22.5953 14.0357 22.5953 16.4289V42.1432C22.5953 44.5365 24.5354 46.4766 26.9286 46.4766H37.8981C40.2282 46.4766 42.4841 47.2941 44.2729 48.7862L55.5476 57.8276V50.7147C55.5476 48.374 57.4451 46.4766 59.7857 46.4766H66.9286C69.3218 46.4766 71.2619 44.5365 71.2619 42.1432V16.4289C71.2619 14.0357 69.3218 12.0956 66.9286 12.0956H26.9286Z" fill="#BF0603"/>
</svg>
