<svg width="21" height="21" viewBox="0 0 21 21" fill="none" xmlns="http://www.w3.org/2000/svg">
<path d="M17.3721 7.10767V5.79517C17.3721 4.96636 17.0428 4.17151 16.4568 3.58546C15.8707 2.99941 15.0759 2.67017 14.2471 2.67017H6.74708C5.91827 2.67017 5.12342 2.99941 4.53737 3.58546C3.95132 4.17151 3.62208 4.96636 3.62208 5.79517V7.10767C2.91564 7.25111 2.28053 7.63437 1.82434 8.1925C1.36815 8.75064 1.11894 9.44932 1.11894 10.1702C1.11894 10.891 1.36815 11.5897 1.82434 12.1478C2.28053 12.706 2.91564 13.0892 3.62208 13.2327V15.7952C3.62208 16.1267 3.75377 16.4446 3.98819 16.679C4.22261 16.9135 4.54055 17.0452 4.87208 17.0452H16.1221C16.4536 17.0452 16.7715 16.9135 17.006 16.679C17.2404 16.4446 17.3721 16.1267 17.3721 15.7952V13.2327C18.0785 13.0892 18.7136 12.706 19.1698 12.1478C19.626 11.5897 19.8752 10.891 19.8752 10.1702C19.8752 9.44932 19.626 8.75064 19.1698 8.1925C18.7136 7.63437 18.0785 7.25111 17.3721 7.10767ZM6.74708 3.92017H14.2471C14.7444 3.92017 15.2213 4.11771 15.5729 4.46934C15.9245 4.82097 16.1221 5.29789 16.1221 5.79517V7.10767C15.4167 7.2527 14.7829 7.63649 14.3275 8.19436C13.8721 8.75222 13.623 9.45003 13.6221 10.1702H7.37208C7.3712 9.45003 7.12206 8.75222 6.66666 8.19436C6.21126 7.63649 5.57746 7.2527 4.87208 7.10767V5.79517C4.87208 5.29789 5.06962 4.82097 5.42125 4.46934C5.77288 4.11771 6.24979 3.92017 6.74708 3.92017ZM16.7775 12.0452H16.7471C16.5813 12.0452 16.4223 12.111 16.3051 12.2282C16.1879 12.3454 16.1221 12.5044 16.1221 12.6702V15.7952H4.87208V12.6702C4.87208 12.5044 4.80623 12.3454 4.68902 12.2282C4.57181 12.111 4.41284 12.0452 4.24708 12.0452H4.21661C3.84712 12.0392 3.48765 11.9241 3.18334 11.7145C2.87904 11.5048 2.64346 11.2099 2.50621 10.8668C2.36895 10.5237 2.33614 10.1477 2.41189 9.78605C2.48765 9.42437 2.66858 9.09313 2.93198 8.83395C3.19537 8.57476 3.52948 8.39919 3.89234 8.32928C4.2552 8.25936 4.63063 8.29823 4.97147 8.441C5.31231 8.58376 5.60336 8.82406 5.80807 9.13171C6.01279 9.43936 6.12203 9.80063 6.12208 10.1702V13.2952C6.12208 13.4609 6.18792 13.6199 6.30513 13.7371C6.42234 13.8543 6.58131 13.9202 6.74708 13.9202C6.91284 13.9202 7.07181 13.8543 7.18902 13.7371C7.30623 13.6199 7.37208 13.4609 7.37208 13.2952V11.4202H13.6221V13.2952C13.6221 13.4609 13.6879 13.6199 13.8051 13.7371C13.9223 13.8543 14.0813 13.9202 14.2471 13.9202C14.4128 13.9202 14.5718 13.8543 14.689 13.7371C14.8062 13.6199 14.8721 13.4609 14.8721 13.2952V10.1702C14.8721 9.80063 14.9814 9.43936 15.1861 9.13171C15.3908 8.82406 15.6818 8.58376 16.0227 8.441C16.3635 8.29823 16.7389 8.25936 17.1018 8.32928C17.4647 8.39919 17.7988 8.57476 18.0622 8.83395C18.3256 9.09313 18.5065 9.42437 18.5823 9.78605C18.658 10.1477 18.6252 10.5237 18.4879 10.8668C18.3507 11.2099 18.1151 11.5048 17.8108 11.7145C17.5065 11.9241 17.147 12.0392 16.7775 12.0452Z" fill="#252422"/>
</svg>
