<svg width="41" height="41" viewBox="0 0 41 41" fill="none" xmlns="http://www.w3.org/2000/svg">
<g clip-path="url(#clip0_409_797)">
<path d="M28.6931 28.0966C28.3376 28.0966 28.0931 27.9189 27.9598 27.5633C27.8265 27.2077 27.8931 26.8966 28.1598 26.63C28.4265 26.3633 28.7376 26.3411 29.0931 26.5633C29.4487 26.7855 29.582 27.03 29.4931 27.2966C29.4042 27.5633 29.2931 27.7633 29.1598 27.8966C29.0264 28.03 28.8709 28.0966 28.6931 28.0966ZM24.2931 13.43H17.0931C16.8265 13.43 16.6264 13.4966 16.4931 13.63C16.3598 13.7633 16.2931 13.9633 16.2931 14.23V24.0966C16.2931 24.3633 16.3598 24.5633 16.4931 24.6966C16.6264 24.83 16.8265 24.8966 17.0931 24.8966H24.2931C24.5598 24.8966 24.7598 24.83 24.8931 24.6966C25.0264 24.5633 25.0931 24.3633 25.0931 24.0966V14.23C25.0931 13.9633 25.0264 13.7633 24.8931 13.63C24.7598 13.4966 24.5598 13.43 24.2931 13.43ZM17.7598 15.03H19.8931V23.43H17.7598V15.03ZM23.6264 23.43H21.4931V15.03H23.6264V23.43ZM40.2931 20.63L29.4931 14.23V8.49663C29.4931 8.22997 29.4042 8.00774 29.2264 7.82997L21.2264 1.5633C20.8709 1.38552 20.5153 1.38552 20.1598 1.5633L12.1598 7.82997C11.982 8.00774 11.8931 8.22997 11.8931 8.49663V14.23L1.09312 20.63C0.826449 20.7189 0.693115 20.9411 0.693115 21.2966V25.5633C0.693115 25.83 0.782004 26.03 0.959782 26.1633C1.13756 26.2966 1.29312 26.3633 1.42645 26.3633C1.55978 26.3633 1.71534 26.3189 1.89312 26.23L2.42645 25.9633V38.23C2.42645 38.4077 2.49312 38.5855 2.62645 38.7633C2.75978 38.9411 2.95978 39.03 3.22645 39.03H38.1598C38.4264 39.03 38.6264 38.9411 38.7598 38.7633C38.8931 38.5855 38.9598 38.4077 38.9598 38.23V25.9633L39.4931 26.23C39.6709 26.3189 39.8265 26.3633 39.9598 26.3633C40.0931 26.3633 40.2487 26.2966 40.4264 26.1633C40.6042 26.03 40.6931 25.83 40.6931 25.5633V21.2966C40.6931 20.9411 40.5598 20.7189 40.2931 20.63ZM20.6931 3.1633L27.8931 8.89663V11.43L21.2264 6.22997C20.8709 5.9633 20.5153 5.9633 20.1598 6.22997L13.4931 11.43V8.89663L20.6931 3.1633ZM2.29312 21.6966L11.8931 15.9633V18.4966L2.29312 24.23V21.6966ZM4.02645 28.7633H7.35978V33.43H4.02645V28.7633ZM4.02645 34.8966H8.15978C8.42645 34.8966 8.62645 34.83 8.75978 34.6966C8.89312 34.5633 8.95978 34.3633 8.95978 34.0966V27.9633C8.95978 27.6966 8.89312 27.4966 8.75978 27.3633C8.62645 27.23 8.42645 27.1633 8.15978 27.1633H4.02645V25.03L11.8931 20.3633V37.43H4.02645V34.8966ZM18.8265 37.43V28.8966H22.5598V37.43H18.8265ZM37.3598 33.43H33.7598V28.7633H37.3598V33.43ZM37.3598 27.1633H32.9598C32.782 27.1633 32.6264 27.23 32.4931 27.3633C32.3598 27.4966 32.2931 27.6966 32.2931 27.9633V34.0966C32.2931 34.3633 32.3598 34.5633 32.4931 34.6966C32.6264 34.83 32.782 34.8966 32.9598 34.8966H37.3598V37.43H29.4931V30.7633C29.4931 30.5855 29.4265 30.4077 29.2931 30.23C29.1598 30.0522 28.982 29.9633 28.7598 29.9633C28.5376 29.9633 28.3376 30.0522 28.1598 30.23C27.982 30.4077 27.8931 30.5855 27.8931 30.7633V37.43H24.0264V28.23C24.0264 27.9633 23.9598 27.7633 23.8265 27.63C23.6931 27.4966 23.5376 27.43 23.3598 27.43H18.0264C17.8487 27.43 17.6931 27.4966 17.5598 27.63C17.4264 27.7633 17.3598 27.9633 17.3598 28.23V37.43H13.4931V13.43L20.6931 7.82997L27.8931 13.43V23.6966C27.8931 23.9633 27.982 24.1633 28.1598 24.2966C28.3376 24.43 28.5376 24.4966 28.7598 24.4966C28.982 24.4966 29.1598 24.43 29.2931 24.2966C29.4265 24.1633 29.4931 23.9633 29.4931 23.6966V20.3633L37.3598 25.03V27.1633ZM39.0931 24.23L29.4931 18.4966V15.9633L39.0931 21.6966V24.23Z" fill="#0A0908"/>
</g>
<defs>
<clipPath id="clip0_409_797">
<rect width="40.02" height="40" fill="white" transform="matrix(1 0 0 -1 0.683105 40.23)"/>
</clipPath>
</defs>
</svg>
