<svg width="41" height="40" viewBox="0 0 41 40" fill="none" xmlns="http://www.w3.org/2000/svg">
<g clip-path="url(#clip0_130_1134)">
<path d="M39.39 37.6H36.99V24.9333C36.99 24.7556 36.9233 24.5778 36.79 24.4C36.6566 24.2222 36.4789 24.1333 36.2566 24.1333C36.0344 24.1333 35.8344 24.2222 35.6566 24.4C35.4789 24.5778 35.39 24.7556 35.39 24.9333V37.6H29.79V31.0667C29.79 30.8889 29.7233 30.7111 29.59 30.5333C29.4566 30.3556 29.2566 30.2667 28.99 30.2667H23.9233C23.7455 30.2667 23.5678 30.3556 23.39 30.5333C23.2122 30.7111 23.1233 30.8889 23.1233 31.0667V37.6H17.6566V5.46668H35.39V18C35.39 18.2667 35.4789 18.4667 35.6566 18.6C35.8344 18.7333 36.0344 18.8 36.2566 18.8C36.4789 18.8 36.6566 18.7333 36.79 18.6C36.9233 18.4667 36.99 18.2667 36.99 18V4.66668C36.99 4.40001 36.9233 4.20001 36.79 4.06668C36.6566 3.93335 36.4566 3.86668 36.19 3.86668H34.3233V1.60001C34.3233 1.42223 34.2344 1.26668 34.0566 1.13335C33.8789 1.00001 33.7011 0.933346 33.5233 0.933346H19.79C19.6122 0.933346 19.4344 1.00001 19.2566 1.13335C19.0789 1.26668 18.99 1.42223 18.99 1.60001V3.86668H16.8566C16.6789 3.86668 16.5233 3.93335 16.39 4.06668C16.2566 4.20001 16.19 4.40001 16.19 4.66668V16.8H10.0566V14.4C10.0566 14.1333 9.96775 13.9333 9.78997 13.8C9.6122 13.6667 9.43442 13.6 9.25664 13.6H3.78997C3.61219 13.6 3.43442 13.6667 3.25664 13.8C3.07886 13.9333 2.98997 14.1333 2.98997 14.4V37.6H0.989972C0.723305 37.6 0.523305 37.6667 0.389972 37.8C0.256639 37.9333 0.189972 38.1111 0.189972 38.3333C0.189972 38.5556 0.256639 38.7333 0.389972 38.8667C0.523305 39 0.723305 39.0667 0.989972 39.0667H39.39C39.6566 39.0667 39.8566 39 39.99 38.8667C40.1233 38.7333 40.19 38.5556 40.19 38.3333C40.19 38.1111 40.1233 37.9333 39.99 37.8C39.8566 37.6667 39.6566 37.6 39.39 37.6ZM20.59 2.40001H32.7233V3.86668H20.59V2.40001ZM4.58997 15.2H8.45664V16.8H4.58997V15.2ZM11.2566 37.6H9.38997V34.8H11.2566V37.6ZM16.19 37.6H12.8566V34C12.8566 33.8222 12.7678 33.6445 12.59 33.4667C12.4122 33.2889 12.2344 33.2 12.0566 33.2H8.58997C8.41219 33.2 8.23442 33.2889 8.05664 33.4667C7.87886 33.6445 7.78997 33.8222 7.78997 34V37.6H4.58997V18.4H16.19V37.6ZM28.3233 37.6H24.7233V31.8667H28.3233V37.6ZM36.8566 21.2C36.6789 20.8445 36.4122 20.7111 36.0566 20.8C35.7011 20.8889 35.5011 21.1111 35.4566 21.4667C35.4122 21.8222 35.5455 22.0889 35.8566 22.2667C36.1678 22.4445 36.4344 22.4445 36.6566 22.2667C36.8789 22.0889 36.99 21.9111 36.99 21.7333C36.99 21.5556 36.9455 21.3778 36.8566 21.2ZM25.2566 8.93335C25.2566 8.75557 25.1678 8.60001 24.99 8.46668C24.8122 8.33335 24.6344 8.26668 24.4566 8.26668H21.1233C20.9455 8.26668 20.7678 8.33335 20.59 8.46668C20.4122 8.60001 20.3233 8.75557 20.3233 8.93335V12.2667C20.3233 12.5333 20.4122 12.7333 20.59 12.8667C20.7678 13 20.9455 13.0667 21.1233 13.0667H24.4566C24.6344 13.0667 24.8122 13 24.99 12.8667C25.1678 12.7333 25.2566 12.5333 25.2566 12.2667V8.93335ZM23.6566 11.4667H21.9233V9.73335H23.6566V11.4667ZM32.59 8.93335C32.59 8.75557 32.5011 8.60001 32.3233 8.46668C32.1455 8.33335 31.9678 8.26668 31.79 8.26668H28.4566C28.2789 8.26668 28.1011 8.33335 27.9233 8.46668C27.7455 8.60001 27.6566 8.75557 27.6566 8.93335V12.2667C27.6566 12.5333 27.7455 12.7333 27.9233 12.8667C28.1011 13 28.2789 13.0667 28.4566 13.0667H31.79C31.9678 13.0667 32.1455 13 32.3233 12.8667C32.5011 12.7333 32.59 12.5333 32.59 12.2667V8.93335ZM30.99 11.4667H29.2566V9.73335H30.99V11.4667ZM25.2566 15.8667C25.2566 15.6 25.1678 15.4 24.99 15.2667C24.8122 15.1333 24.6344 15.0667 24.4566 15.0667H21.1233C20.9455 15.0667 20.7678 15.1333 20.59 15.2667C20.4122 15.4 20.3233 15.6 20.3233 15.8667V19.0667C20.3233 19.3333 20.4122 19.5333 20.59 19.6667C20.7678 19.8 20.9455 19.8667 21.1233 19.8667H24.4566C24.6344 19.8667 24.8122 19.8 24.99 19.6667C25.1678 19.5333 25.2566 19.3333 25.2566 19.0667V15.8667ZM23.6566 18.4H21.9233V16.6667H23.6566V18.4ZM32.59 15.8667C32.59 15.6 32.5011 15.4 32.3233 15.2667C32.1455 15.1333 31.9678 15.0667 31.79 15.0667H28.4566C28.2789 15.0667 28.1011 15.1333 27.9233 15.2667C27.7455 15.4 27.6566 15.6 27.6566 15.8667V19.0667C27.6566 19.3333 27.7455 19.5333 27.9233 19.6667C28.1011 19.8 28.2789 19.8667 28.4566 19.8667H31.79C31.9678 19.8667 32.1455 19.8 32.3233 19.6667C32.5011 19.5333 32.59 19.3333 32.59 19.0667V15.8667ZM30.99 18.4H29.2566V16.6667H30.99V18.4ZM24.4566 21.8667H21.1233C20.9455 21.8667 20.7678 21.9333 20.59 22.0667C20.4122 22.2 20.3233 22.4 20.3233 22.6667V26C20.3233 26.1778 20.4122 26.3556 20.59 26.5333C20.7678 26.7111 20.9455 26.8 21.1233 26.8H24.4566C24.6344 26.8 24.8122 26.7111 24.99 26.5333C25.1678 26.3556 25.2566 26.1778 25.2566 26V22.6667C25.2566 22.4 25.1678 22.2 24.99 22.0667C24.8122 21.9333 24.6344 21.8667 24.4566 21.8667ZM23.6566 25.2H21.9233V23.4667H23.6566V25.2ZM31.79 21.8667H28.4566C28.2789 21.8667 28.1011 21.9333 27.9233 22.0667C27.7455 22.2 27.6566 22.4 27.6566 22.6667V26C27.6566 26.1778 27.7455 26.3556 27.9233 26.5333C28.1011 26.7111 28.2789 26.8 28.4566 26.8H31.79C31.9678 26.8 32.1455 26.7111 32.3233 26.5333C32.5011 26.3556 32.59 26.1778 32.59 26V22.6667C32.59 22.4 32.5011 22.2 32.3233 22.0667C32.1455 21.9333 31.9678 21.8667 31.79 21.8667ZM30.99 25.2H29.2566V23.4667H30.99V25.2ZM7.12331 20.1333C6.94553 20.1333 6.76775 20.2222 6.58997 20.4C6.41219 20.5778 6.32331 20.7556 6.32331 20.9333V30.8C6.32331 30.9778 6.41219 31.1556 6.58997 31.3333C6.76775 31.5111 6.94553 31.6 7.12331 31.6C7.30108 31.6 7.47886 31.5111 7.65664 31.3333C7.83442 31.1556 7.92331 30.9778 7.92331 30.8V20.9333C7.92331 20.7556 7.83442 20.5778 7.65664 20.4C7.47886 20.2222 7.30108 20.1333 7.12331 20.1333ZM10.3233 31.6C10.5011 31.6 10.6789 31.5111 10.8566 31.3333C11.0344 31.1556 11.1233 30.9778 11.1233 30.8V20.9333C11.1233 20.7556 11.0344 20.5778 10.8566 20.4C10.6789 20.2222 10.5011 20.1333 10.3233 20.1333C10.1455 20.1333 9.96775 20.2222 9.78997 20.4C9.6122 20.5778 9.52331 20.7556 9.52331 20.9333V30.8C9.52331 30.9778 9.6122 31.1556 9.78997 31.3333C9.96775 31.5111 10.1455 31.6 10.3233 31.6ZM13.5233 31.6C13.7011 31.6 13.8789 31.5111 14.0566 31.3333C14.2344 31.1556 14.3233 30.9778 14.3233 30.8V20.9333C14.3233 20.7556 14.2344 20.5778 14.0566 20.4C13.8789 20.2222 13.7011 20.1333 13.5233 20.1333C13.3455 20.1333 13.1678 20.2222 12.99 20.4C12.8122 20.5778 12.7233 20.7556 12.7233 20.9333V30.8C12.7233 30.9778 12.8122 31.1556 12.99 31.3333C13.1678 31.5111 13.3455 31.6 13.5233 31.6Z" fill="#0A0908"/>
</g>
<defs>
<clipPath id="clip0_130_1134">
<rect width="40.02" height="40" fill="white" transform="matrix(1 0 0 -1 0.179962 40)"/>
</clipPath>
</defs>
</svg>
