<svg width="41" height="41" viewBox="0 0 41 41" fill="none" xmlns="http://www.w3.org/2000/svg">
<path d="M5.11318 22.63C4.84651 22.63 4.64651 22.6967 4.51318 22.83C4.37985 22.9633 4.31318 23.1633 4.31318 23.43V38.4967C4.31318 38.7633 4.37985 38.9855 4.51318 39.1633C4.64651 39.3411 4.84651 39.43 5.11318 39.43H35.1132C35.291 39.43 35.4687 39.3411 35.6465 39.1633C35.8243 38.9855 35.9132 38.7633 35.9132 38.4967V26.23C35.9132 25.9633 35.8243 25.7633 35.6465 25.63C35.4687 25.4967 35.2687 25.43 35.0465 25.43C34.8243 25.43 34.6465 25.4967 34.5132 25.63C34.3798 25.7633 34.3132 25.9633 34.3132 26.23V37.6967H5.91318V23.43C5.91318 23.1633 5.82429 22.9633 5.64651 22.83C5.46873 22.6967 5.29096 22.63 5.11318 22.63ZM8.44651 26.0967C8.17985 26.0967 7.97985 26.1633 7.84651 26.2967C7.71318 26.43 7.64651 26.63 7.64651 26.8967V38.4967C7.64651 38.7633 7.71318 38.9855 7.84651 39.1633C7.97985 39.3411 8.17985 39.43 8.44651 39.43H17.6465C17.8243 39.43 18.0021 39.3411 18.1798 39.1633C18.3576 38.9855 18.4465 38.7633 18.4465 38.4967V29.43C18.4465 29.2522 18.3576 29.0744 18.1798 28.8967C18.0021 28.7189 17.8021 28.63 17.5798 28.63C17.3576 28.63 17.1576 28.7189 16.9798 28.8967C16.8021 29.0744 16.7132 29.2522 16.7132 29.43V37.6967H9.24651V27.6967H17.6465C17.8243 27.6967 18.0021 27.63 18.1798 27.4967C18.3576 27.3633 18.4465 27.1633 18.4465 26.8967C18.4465 26.63 18.3576 26.43 18.1798 26.2967C18.0021 26.1633 17.8243 26.0967 17.6465 26.0967H8.44651ZM21.7798 26.0967C21.5132 26.0967 21.3132 26.1633 21.1798 26.2967C21.0465 26.43 20.9798 26.63 20.9798 26.8967V34.3633C20.9798 34.63 21.0465 34.83 21.1798 34.9633C21.3132 35.0967 21.5132 35.1633 21.7798 35.1633H31.7798C31.9576 35.1633 32.1354 35.0967 32.3132 34.9633C32.491 34.83 32.5798 34.63 32.5798 34.3633V29.43C32.5798 29.2522 32.491 29.0744 32.3132 28.8967C32.1354 28.7189 31.9354 28.63 31.7132 28.63C31.491 28.63 31.3132 28.7189 31.1798 28.8967C31.0465 29.0744 30.9798 29.2522 30.9798 29.43V33.5633H22.5798V27.6967H31.7798C31.9576 27.6967 32.1354 27.63 32.3132 27.4967C32.491 27.3633 32.5798 27.1633 32.5798 26.8967C32.5798 26.63 32.491 26.43 32.3132 26.2967C32.1354 26.1633 31.9576 26.0967 31.7798 26.0967H21.7798ZM20.0465 17.1633C19.0687 17.1633 18.2465 17.5189 17.5798 18.23C16.9132 18.9411 16.5798 19.7855 16.5798 20.7633C16.5798 21.7411 16.9132 22.5855 17.5798 23.2967C18.2465 24.0078 19.0687 24.3633 20.0465 24.3633C21.0243 24.3633 21.8687 24.0078 22.5798 23.2967C23.291 22.5855 23.6465 21.7411 23.6465 20.7633C23.6465 20.4967 23.5576 20.2967 23.3798 20.1633C23.2021 20.03 23.0021 19.9633 22.7798 19.9633C22.5576 19.9633 22.3576 20.03 22.1798 20.1633C22.0021 20.2967 21.9132 20.4967 21.9132 20.7633C21.9132 21.2967 21.7354 21.7411 21.3798 22.0967C21.0243 22.4522 20.5798 22.63 20.0465 22.63C19.5132 22.63 19.0687 22.4522 18.7132 22.0967C18.3576 21.7411 18.1798 21.2967 18.1798 20.7633C18.1798 20.23 18.3576 19.7855 18.7132 19.43C19.0687 19.0744 19.5132 18.8967 20.0465 18.8967C20.5798 18.8967 21.0243 19.0744 21.3798 19.43C21.5576 19.6078 21.7576 19.6967 21.9798 19.6967C22.2021 19.6967 22.4021 19.6078 22.5798 19.43C22.7576 19.2522 22.8465 19.0522 22.8465 18.83C22.8465 18.6078 22.7576 18.4078 22.5798 18.23C21.8687 17.5189 21.0243 17.1633 20.0465 17.1633ZM25.5132 29.03C25.1576 29.03 24.9354 29.2078 24.8465 29.5633L23.9132 30.8967C23.8243 31.1633 23.8021 31.4078 23.8465 31.63C23.891 31.8522 24.0243 32.0078 24.2465 32.0967C24.4687 32.1855 24.691 32.2078 24.9132 32.1633C25.1354 32.1189 25.291 32.0078 25.3798 31.83L26.1798 30.3633C26.3576 30.1855 26.4021 29.9855 26.3132 29.7633C26.2243 29.5411 26.1132 29.3855 25.9798 29.2967C25.8465 29.2078 25.691 29.1189 25.5132 29.03ZM28.8465 29.03C28.491 29.03 28.2687 29.2078 28.1798 29.5633L27.2465 30.8967C27.1576 31.1633 27.1354 31.4078 27.1798 31.63C27.2243 31.8522 27.3576 32.0078 27.5798 32.0967C27.8021 32.1855 28.0243 32.2078 28.2465 32.1633C28.4687 32.1189 28.6243 32.0078 28.7132 31.83L29.5132 30.3633C29.691 30.1855 29.7354 29.9855 29.6465 29.7633C29.5576 29.5411 29.4465 29.3855 29.3132 29.2967C29.1798 29.2078 29.0243 29.1189 28.8465 29.03ZM33.7798 1.02999C32.3576 1.02999 31.1132 1.56332 30.0465 2.62999C28.9798 3.69666 28.4465 4.98555 28.4465 6.49666C28.4465 8.00777 28.9798 9.27444 30.0465 10.2967C31.1132 11.3189 32.3798 11.83 33.8465 11.83C35.3132 11.83 36.5798 11.3189 37.6465 10.2967C38.7132 9.27444 39.2465 8.00777 39.2465 6.49666C39.2465 4.98555 38.7132 3.69666 37.6465 2.62999C36.5798 1.56332 35.291 1.02999 33.7798 1.02999ZM33.7798 2.76332C34.8465 2.76332 35.7576 3.11888 36.5132 3.82999C37.2687 4.5411 37.6465 5.42999 37.6465 6.49666C37.6465 7.56332 37.2687 8.45221 36.5132 9.16332C35.7576 9.87444 34.8687 10.23 33.8465 10.23C32.8243 10.23 31.9354 9.87444 31.1798 9.16332C30.4243 8.45221 30.0465 7.56332 30.0465 6.49666C30.0465 5.42999 30.4243 4.5411 31.1798 3.82999C31.9354 3.11888 32.8021 2.76332 33.7798 2.76332ZM5.24651 8.09666C5.06873 8.09666 4.89096 8.16332 4.71318 8.29666C4.5354 8.42999 4.44651 8.62999 4.44651 8.89666V18.3633C4.44651 18.5411 4.5354 18.7189 4.71318 18.8967C4.89096 19.0744 5.09096 19.1633 5.31318 19.1633C5.5354 19.1633 5.71318 19.0744 5.84651 18.8967C5.97985 18.7189 6.04651 18.5411 6.04651 18.3633V9.69666H9.37985V14.63C9.37985 14.8967 9.46873 15.1189 9.64651 15.2967C9.82429 15.4744 10.0243 15.5633 10.2465 15.5633C10.4687 15.5633 10.6687 15.4744 10.8465 15.2967C11.0243 15.1189 11.1132 14.8967 11.1132 14.63V8.89666C11.1132 8.62999 11.0243 8.42999 10.8465 8.29666C10.6687 8.16332 10.491 8.09666 10.3132 8.09666H5.24651ZM3.64651 5.02999C3.37985 5.02999 3.15762 5.11888 2.97985 5.29666C2.80207 5.47443 2.71318 5.65221 2.71318 5.82999V8.89666C2.71318 9.07444 2.80207 9.25221 2.97985 9.42999C3.15762 9.60777 3.37985 9.69666 3.64651 9.69666H11.9132C12.1798 9.69666 12.3798 9.60777 12.5132 9.42999C12.6465 9.25221 12.7132 9.07444 12.7132 8.89666V5.82999C12.7132 5.65221 12.6465 5.47443 12.5132 5.29666C12.3798 5.11888 12.1798 5.02999 11.9132 5.02999H3.64651ZM4.44651 6.76332H11.1132V8.09666H4.44651V6.76332ZM12.3132 32.7633C12.3132 33.03 12.2021 33.2744 11.9798 33.4967C11.7576 33.7189 11.5132 33.83 11.2465 33.83C10.9798 33.83 10.7354 33.7189 10.5132 33.4967C10.291 33.2744 10.1798 33.0078 10.1798 32.6967C10.1798 32.3855 10.291 32.1411 10.5132 31.9633C10.7354 31.7855 10.9798 31.6967 11.2465 31.6967C11.5132 31.6967 11.7576 31.7855 11.9798 31.9633C12.2021 32.1411 12.3132 32.4078 12.3132 32.7633ZM19.9132 7.96332C19.4687 7.96332 19.0687 8.09666 18.7132 8.36333L2.04651 19.83C1.69096 20.0967 1.46873 20.4744 1.37985 20.9633C1.29096 21.4522 1.37985 21.8744 1.64651 22.23L2.57985 23.5633C2.84651 23.9189 3.20207 24.1411 3.64651 24.23C4.09096 24.3189 4.5354 24.23 4.97985 23.9633L20.0465 13.43L35.2465 23.9633C35.6021 24.23 36.0243 24.3189 36.5132 24.23C37.0021 24.1411 37.3798 23.9189 37.6465 23.5633L38.5798 22.23C38.8465 21.8744 38.9354 21.4522 38.8465 20.9633C38.7576 20.4744 38.5354 20.0967 38.1798 19.83L21.5132 8.36333C21.0687 8.09666 20.5354 7.96332 19.9132 7.96332ZM20.0465 9.56332C20.2243 9.56332 20.4021 9.60777 20.5798 9.69666L37.1132 21.2967L36.1798 22.63L20.5798 11.83C20.2243 11.5633 19.9132 11.5633 19.6465 11.83L3.91318 22.63L2.97985 21.2967L19.6465 9.69666C19.7354 9.60777 19.8687 9.56332 20.0465 9.56332Z" fill="#0A0908"/>
</svg>
