<svg width="41" height="41" viewBox="0 0 41 41" fill="none" xmlns="http://www.w3.org/2000/svg">
<path d="M2.04274 34.3633C1.86496 34.3633 1.68718 34.4522 1.5094 34.63C1.33163 34.8078 1.24274 34.9855 1.24274 35.1633V38.4967C1.24274 38.7633 1.33163 38.9855 1.5094 39.1633C1.68718 39.3411 1.86496 39.43 2.04274 39.43H31.2427C31.5094 39.43 31.7316 39.3411 31.9094 39.1633C32.0872 38.9855 32.1316 38.7633 32.0427 38.4967V35.1633C32.0427 34.9855 31.9761 34.8078 31.8427 34.63C31.7094 34.4522 31.5094 34.3633 31.2427 34.3633H2.04274ZM2.97607 36.0967H30.4427V37.6967H2.97607V36.0967ZM28.7094 19.43C28.5316 19.43 28.3538 19.4967 28.1761 19.63C27.9983 19.7633 27.9094 19.9633 27.9094 20.23V34.3633H5.37607V22.8967C5.46496 22.63 5.42051 22.43 5.24274 22.2967C5.06496 22.1633 4.86496 22.0967 4.64274 22.0967C4.42051 22.0967 4.22051 22.1633 4.04274 22.2967C3.86496 22.43 3.77607 22.63 3.77607 22.8967V35.1633C3.77607 35.43 3.86496 35.6522 4.04274 35.83C4.22051 36.0078 4.39829 36.0967 4.57607 36.0967H28.7094C28.9761 36.0967 29.1983 36.0078 29.3761 35.83C29.5539 35.6522 29.6427 35.43 29.6427 35.1633V20.23C29.6427 19.9633 29.5539 19.7633 29.3761 19.63C29.1983 19.4967 28.9761 19.43 28.7094 19.43ZM5.37607 10.23C5.02051 10.23 4.79829 10.4078 4.7094 10.7633L1.37607 19.9633C1.28718 20.23 1.3094 20.4744 1.44274 20.6967C1.57607 20.9189 1.77607 21.03 2.04274 21.03H31.2427C31.5983 21.03 31.8427 20.9189 31.9761 20.6967C32.1094 20.4744 32.1316 20.23 32.0427 19.9633L28.7094 10.7633C28.6205 10.4078 28.3538 10.23 27.9094 10.23H23.7761C23.5094 10.23 23.3094 10.3189 23.1761 10.4967C23.0427 10.6744 22.9761 10.8744 22.9761 11.0967C22.9761 11.3189 23.0427 11.4967 23.1761 11.63C23.3094 11.7633 23.5094 11.83 23.7761 11.83H27.3761L30.0427 19.43H3.24274L6.04274 11.83H10.0427C10.2205 11.83 10.3983 11.7633 10.5761 11.63C10.7538 11.4967 10.8427 11.3189 10.8427 11.0967C10.8427 10.8744 10.7538 10.6744 10.5761 10.4967C10.3983 10.3189 10.2205 10.23 10.0427 10.23H5.37607ZM10.0427 7.29666C9.77607 7.29666 9.57607 7.38555 9.44274 7.56332C9.3094 7.7411 9.24274 7.96332 9.24274 8.22999V16.0967C9.24274 16.2744 9.3094 16.4522 9.44274 16.63C9.57607 16.8078 9.77607 16.8967 10.0427 16.8967H23.3761C23.5538 16.8967 23.7316 16.8078 23.9094 16.63C24.0872 16.4522 24.1761 16.2744 24.1761 16.0967V8.22999C24.1761 7.96332 24.0872 7.7411 23.9094 7.56332C23.7316 7.38555 23.5316 7.29666 23.3094 7.29666C23.0872 7.29666 22.9094 7.38555 22.7761 7.56332C22.6427 7.7411 22.5761 7.96332 22.5761 8.22999V15.1633H10.8427V8.22999C10.8427 7.96332 10.7538 7.7411 10.5761 7.56332C10.3983 7.38555 10.2205 7.29666 10.0427 7.29666ZM9.64274 1.02999C9.19829 1.02999 8.93163 1.25221 8.84274 1.69666L6.7094 7.96332C6.62051 8.22999 6.66496 8.47444 6.84274 8.69666C7.02051 8.91888 7.24274 9.02999 7.5094 9.02999H25.9094C26.1761 9.02999 26.3983 8.91888 26.5761 8.69666C26.7538 8.47444 26.7983 8.22999 26.7094 7.96332L24.5761 1.69666C24.4872 1.25221 24.2205 1.02999 23.7761 1.02999H9.64274ZM10.1761 2.76332H23.2427L24.7094 7.29666H8.7094L10.1761 2.76332ZM7.9094 25.2967C7.73163 25.2078 7.55385 25.2522 7.37607 25.43C7.19829 25.6078 7.1094 25.83 7.1094 26.0967V35.1633C7.1094 35.43 7.19829 35.6522 7.37607 35.83C7.55385 36.0078 7.73163 36.0967 7.9094 36.0967H15.1094C15.2872 36.0967 15.465 36.0078 15.6427 35.83C15.8205 35.6522 15.9094 35.43 15.9094 35.1633V26.0967C15.9094 25.83 15.8205 25.63 15.6427 25.4967C15.465 25.3633 15.2872 25.2967 15.1094 25.2967H7.9094ZM8.84274 26.8967H14.1761V34.3633H8.84274V26.8967ZM18.4427 25.2967C18.1761 25.2078 17.9538 25.2522 17.7761 25.43C17.5983 25.6078 17.5094 25.83 17.5094 26.0967V31.6967C17.5094 31.8744 17.5983 32.0522 17.7761 32.23C17.9538 32.4078 18.1761 32.4967 18.4427 32.4967H26.3094C26.4872 32.4967 26.665 32.4078 26.8427 32.23C27.0205 32.0522 27.1094 31.8744 27.1094 31.6967V28.8967C27.1094 28.63 27.0205 28.43 26.8427 28.2967C26.665 28.1633 26.465 28.0967 26.2427 28.0967C26.0205 28.0967 25.8205 28.1633 25.6427 28.2967C25.465 28.43 25.3761 28.63 25.3761 28.8967V30.8967H19.2427V26.8967H26.3094C26.4872 26.8967 26.665 26.8078 26.8427 26.63C27.0205 26.4522 27.1094 26.2522 27.1094 26.03C27.1094 25.8078 27.0205 25.63 26.8427 25.4967C26.665 25.3633 26.4872 25.2967 26.3094 25.2967H18.4427ZM13.7761 9.69666C13.5094 9.60777 13.3094 9.65221 13.1761 9.82999C13.0427 10.0078 12.9761 10.23 12.9761 10.4967V13.83C12.9761 14.0078 13.0427 14.1855 13.1761 14.3633C13.3094 14.5411 13.5094 14.63 13.7761 14.63H19.6427C19.8205 14.63 19.9983 14.5411 20.1761 14.3633C20.3538 14.1855 20.4427 14.0078 20.4427 13.83V10.4967C20.4427 10.23 20.3538 10.0078 20.1761 9.82999C19.9983 9.65221 19.8205 9.60777 19.6427 9.69666H13.7761ZM14.5761 11.2967H18.8427V12.8967H14.5761V11.2967ZM34.5761 1.02999C33.2427 1.02999 32.0872 1.51888 31.1094 2.49666C30.1316 3.47443 29.6427 4.65221 29.6427 6.02999C29.6427 7.40777 30.1316 8.58555 31.1094 9.56332C32.0872 10.5411 33.265 11.03 34.6427 11.03C36.0205 11.03 37.1983 10.5411 38.1761 9.56332C39.1539 8.58555 39.6427 7.40777 39.6427 6.02999C39.6427 4.65221 39.1539 3.47443 38.1761 2.49666C37.1983 1.51888 35.9983 1.02999 34.5761 1.02999ZM34.5761 2.76332C35.5538 2.76332 36.3539 3.07444 36.9761 3.69666C37.5983 4.31888 37.9094 5.09666 37.9094 6.02999C37.9094 6.96333 37.5983 7.76332 36.9761 8.42999C36.3539 9.09666 35.5761 9.42999 34.6427 9.42999C33.7094 9.42999 32.9094 9.09666 32.2427 8.42999C31.5761 7.76332 31.2427 6.96333 31.2427 6.02999C31.2427 5.09666 31.5761 4.31888 32.2427 3.69666C32.9094 3.07444 33.6872 2.76332 34.5761 2.76332ZM11.6427 30.63C11.6427 30.8967 11.5538 31.1189 11.3761 31.2967C11.1983 31.4744 10.9983 31.5633 10.7761 31.5633C10.5538 31.5633 10.3538 31.4744 10.1761 31.2967C9.99829 31.1189 9.9094 30.8967 9.9094 30.63C9.9094 30.3633 9.99829 30.1411 10.1761 29.9633C10.3538 29.7855 10.5538 29.6967 10.7761 29.6967C10.9983 29.6967 11.1983 29.7855 11.3761 29.9633C11.5538 30.1411 11.6427 30.3633 11.6427 30.63ZM21.3761 27.6967C21.0205 27.6967 20.7538 27.83 20.5761 28.0967L20.1761 28.7633C19.9983 29.03 19.9538 29.2744 20.0427 29.4967C20.1316 29.7189 20.265 29.8744 20.4427 29.9633C20.6205 30.0522 20.8205 30.0744 21.0427 30.03C21.265 29.9855 21.465 29.8744 21.6427 29.6967L22.0427 28.8967C22.1316 28.7189 22.1538 28.5189 22.1094 28.2967C22.065 28.0744 21.9538 27.9189 21.7761 27.83C21.5983 27.7411 21.465 27.6967 21.3761 27.6967ZM23.7761 27.6967C23.5094 27.6967 23.2872 27.83 23.1094 28.0967L22.7094 28.7633C22.5316 29.03 22.4872 29.2744 22.5761 29.4967C22.665 29.7189 22.7983 29.8744 22.9761 29.9633C23.1538 30.0522 23.3538 30.0744 23.5761 30.03C23.7983 29.9855 23.9538 29.8744 24.0427 29.6967L24.4427 28.8967C24.6205 28.7189 24.665 28.5189 24.5761 28.2967C24.4872 28.0744 24.3761 27.9189 24.2427 27.83C24.1094 27.7411 23.9538 27.6967 23.7761 27.6967Z" fill="#0A0908"/>
</svg>
