<svg width="41" height="41" viewBox="0 0 41 41" fill="none" xmlns="http://www.w3.org/2000/svg">
<g clip-path="url(#clip0_130_1126)">
<path d="M20.9233 27.5633C21.19 27.5633 21.39 27.4966 21.5233 27.3633C21.6567 27.23 21.7233 27.03 21.7233 26.7633V23.1633C21.7233 22.8078 21.59 22.5633 21.3233 22.43C21.0567 22.2966 20.79 22.2966 20.5233 22.43C20.2567 22.5633 20.1233 22.8078 20.1233 23.1633V26.7633C20.1233 27.03 20.2122 27.23 20.39 27.3633C20.5678 27.4966 20.7455 27.5633 20.9233 27.5633ZM20.9233 11.1633C21.19 11.1633 21.39 11.0966 21.5233 10.9633C21.6567 10.83 21.7233 10.6744 21.7233 10.4966V6.76331C21.7233 6.49665 21.59 6.29665 21.3233 6.16331C21.0567 6.02998 20.79 6.02998 20.5233 6.16331C20.2567 6.29665 20.1233 6.49665 20.1233 6.76331V10.4966C20.1233 10.6744 20.2122 10.83 20.39 10.9633C20.5678 11.0966 20.7455 11.1633 20.9233 11.1633ZM20.9233 19.43C21.19 19.43 21.39 19.3411 21.5233 19.1633C21.6567 18.9855 21.7233 18.8078 21.7233 18.63V15.03C21.7233 14.7633 21.6567 14.5633 21.5233 14.43C21.39 14.2966 21.2122 14.23 20.99 14.23C20.7678 14.23 20.5678 14.2966 20.39 14.43C20.2122 14.5633 20.1233 14.7633 20.1233 15.03V18.63C20.1233 18.8078 20.2122 18.9855 20.39 19.1633C20.5678 19.3411 20.7455 19.43 20.9233 19.43ZM26.39 11.1633C26.5678 11.1633 26.7455 11.0966 26.9233 10.9633C27.1011 10.83 27.19 10.6744 27.19 10.4966V6.76331C27.19 6.58554 27.1011 6.40776 26.9233 6.22998C26.7455 6.0522 26.5678 5.96331 26.39 5.96331C26.2122 5.96331 26.0344 6.0522 25.8567 6.22998C25.6789 6.40776 25.59 6.58554 25.59 6.76331V10.4966C25.59 10.6744 25.6789 10.83 25.8567 10.9633C26.0344 11.0966 26.2122 11.1633 26.39 11.1633ZM26.39 19.43C26.5678 19.43 26.7455 19.3411 26.9233 19.1633C27.1011 18.9855 27.19 18.8078 27.19 18.63V15.03C27.19 14.7633 27.1011 14.5633 26.9233 14.43C26.7455 14.2966 26.5678 14.23 26.39 14.23C26.2122 14.23 26.0344 14.2966 25.8567 14.43C25.6789 14.5633 25.59 14.7633 25.59 15.03V18.63C25.59 18.8078 25.6789 18.9855 25.8567 19.1633C26.0344 19.3411 26.2122 19.43 26.39 19.43ZM26.39 27.5633C26.5678 27.5633 26.7455 27.4966 26.9233 27.3633C27.1011 27.23 27.19 27.03 27.19 26.7633V23.1633C27.19 22.8966 27.1011 22.6966 26.9233 22.5633C26.7455 22.43 26.5678 22.3633 26.39 22.3633C26.2122 22.3633 26.0344 22.43 25.8567 22.5633C25.6789 22.6966 25.59 22.8966 25.59 23.1633V26.7633C25.59 27.03 25.6789 27.23 25.8567 27.3633C26.0344 27.4966 26.2122 27.5633 26.39 27.5633ZM35.4567 30.4966H36.1233C36.3011 30.4966 36.4567 30.43 36.59 30.2966C36.7233 30.1633 36.79 29.9855 36.79 29.7633C36.79 29.5411 36.7233 29.3633 36.59 29.23C36.4567 29.0966 36.3011 29.03 36.1233 29.03H35.4567C35.19 29.03 34.99 29.0966 34.8567 29.23C34.7233 29.3633 34.6567 29.5411 34.6567 29.7633C34.6567 29.9855 34.7233 30.1633 34.8567 30.2966C34.99 30.43 35.19 30.4966 35.4567 30.4966ZM35.4567 26.0966H36.1233C36.3011 26.0966 36.4567 26.03 36.59 25.8966C36.7233 25.7633 36.79 25.5855 36.79 25.3633C36.79 25.1411 36.7233 24.9411 36.59 24.7633C36.4567 24.5855 36.3011 24.4966 36.1233 24.4966H35.4567C35.19 24.4966 34.99 24.5855 34.8567 24.7633C34.7233 24.9411 34.6567 25.1411 34.6567 25.3633C34.6567 25.5855 34.7233 25.7633 34.8567 25.8966C34.99 26.03 35.19 26.0966 35.4567 26.0966ZM35.4567 34.8966H36.1233C36.3011 34.8966 36.4567 34.8078 36.59 34.63C36.7233 34.4522 36.79 34.2744 36.79 34.0966C36.79 33.9189 36.7233 33.7411 36.59 33.5633C36.4567 33.3855 36.3011 33.2966 36.1233 33.2966H35.4567C35.19 33.2966 34.99 33.3855 34.8567 33.5633C34.7233 33.7411 34.6567 33.9189 34.6567 34.0966C34.6567 34.2744 34.7233 34.4522 34.8567 34.63C34.99 34.8078 35.19 34.8966 35.4567 34.8966ZM11.7233 21.6966H12.39C12.5678 21.6966 12.7233 21.63 12.8567 21.4966C12.99 21.3633 13.0567 21.1855 13.0567 20.9633C13.0567 20.7411 12.99 20.5633 12.8567 20.43C12.7233 20.2966 12.5678 20.23 12.39 20.23H11.7233C11.4567 20.23 11.2567 20.2966 11.1233 20.43C10.99 20.5633 10.9233 20.7411 10.9233 20.9633C10.9233 21.1855 10.99 21.3633 11.1233 21.4966C11.2567 21.63 11.4567 21.6966 11.7233 21.6966ZM11.7233 17.2966H12.39C12.5678 17.2966 12.7233 17.23 12.8567 17.0966C12.99 16.9633 13.0567 16.7855 13.0567 16.5633C13.0567 16.3411 12.99 16.1633 12.8567 16.03C12.7233 15.8966 12.5678 15.83 12.39 15.83H11.7233C11.4567 15.83 11.2567 15.8966 11.1233 16.03C10.99 16.1633 10.9233 16.3411 10.9233 16.5633C10.9233 16.7855 10.99 16.9633 11.1233 17.0966C11.2567 17.23 11.4567 17.2966 11.7233 17.2966ZM11.7233 26.0966H12.39C12.5678 26.0966 12.7233 26.03 12.8567 25.8966C12.99 25.7633 13.0567 25.5855 13.0567 25.3633C13.0567 25.1411 12.99 24.9411 12.8567 24.7633C12.7233 24.5855 12.5678 24.4966 12.39 24.4966H11.7233C11.3678 24.4966 11.1233 24.63 10.99 24.8966C10.8567 25.1633 10.8567 25.43 10.99 25.6966C11.1233 25.9633 11.3678 26.0966 11.7233 26.0966ZM39.7233 18.23H32.5233V1.69665C32.5233 1.42998 32.4567 1.22998 32.3233 1.09665C32.19 0.963314 31.99 0.896648 31.7233 0.896648H15.59C15.4122 0.896648 15.2344 0.985535 15.0567 1.16331C14.8789 1.34109 14.79 1.51887 14.79 1.69665V11.2966H8.38999C8.21221 11.2966 8.03443 11.3633 7.85665 11.4966C7.67887 11.63 7.58999 11.83 7.58999 12.0966V21.5633C7.58999 21.83 7.67887 22.03 7.85665 22.1633C8.03443 22.2966 8.23443 22.3633 8.45665 22.3633C8.67887 22.3633 8.85665 22.2966 8.98999 22.1633C9.12332 22.03 9.18999 21.83 9.18999 21.5633V12.7633H14.79V38.4966H9.18999C8.92332 38.4966 8.72332 38.5855 8.58999 38.7633C8.45665 38.9411 8.38999 39.1411 8.38999 39.3633C8.38999 39.5855 8.45665 39.7633 8.58999 39.8966C8.72332 40.03 8.92332 40.0966 9.18999 40.0966H37.0567C38.0344 40.0966 38.8567 39.7633 39.5233 39.0966C40.19 38.43 40.5233 37.6522 40.5233 36.7633V19.03C40.5233 18.8522 40.4344 18.6744 40.2567 18.4966C40.0789 18.3189 39.9011 18.23 39.7233 18.23ZM21.7233 38.4966V32.4966H25.59V38.4966H21.7233ZM30.9233 38.4966H27.19V31.6966C27.19 31.43 27.1011 31.23 26.9233 31.0966C26.7455 30.9633 26.5678 30.8966 26.39 30.8966H20.9233C20.7455 30.8966 20.5678 30.9633 20.39 31.0966C20.2122 31.23 20.1233 31.43 20.1233 31.6966V38.4966H16.39V2.36332H30.9233V38.4966ZM38.9233 36.7633C38.9233 37.2078 38.7455 37.63 38.39 38.03C38.0344 38.43 37.59 38.63 37.0567 38.63H32.5233V19.83H38.9233V36.7633ZM10.5233 29.43C10.5233 28.0966 9.85665 26.8078 8.52332 25.5633C7.81221 24.8522 7.05665 24.2744 6.25665 23.83C6.07887 23.7411 5.85665 23.7411 5.58999 23.83C4.87887 24.2744 4.12332 24.8522 3.32332 25.5633C1.98999 26.8078 1.32332 28.1189 1.32332 29.4966C1.32332 30.8744 1.67887 32.0966 2.38999 33.1633C3.1011 34.23 4.03443 34.8522 5.18999 35.03V39.2966C5.18999 39.5633 5.25665 39.7633 5.38999 39.8966C5.52332 40.03 5.7011 40.0966 5.92332 40.0966C6.14554 40.0966 6.32332 40.03 6.45665 39.8966C6.58999 39.7633 6.65665 39.5633 6.65665 39.2966V35.03C7.81221 34.8522 8.74554 34.23 9.45665 33.1633C10.1678 32.0966 10.5233 30.8522 10.5233 29.43ZM2.78999 29.43C2.78999 28.7189 3.18999 27.9189 3.98999 27.03C4.52332 26.4966 5.18999 25.9633 5.98999 25.43C6.7011 25.9633 7.32332 26.4966 7.85665 27.03C8.65665 27.9189 9.05665 28.7189 9.05665 29.43C9.05665 30.4078 8.83443 31.2744 8.38999 32.03C7.94554 32.7855 7.36776 33.2522 6.65665 33.43V31.6966C6.65665 31.43 6.58999 31.23 6.45665 31.0966C6.32332 30.9633 6.14554 30.8966 5.92332 30.8966C5.7011 30.8966 5.52332 30.9633 5.38999 31.0966C5.25665 31.23 5.18999 31.43 5.18999 31.6966V33.43C4.47887 33.2522 3.9011 32.7855 3.45665 32.03C3.01221 31.2744 2.78999 30.4078 2.78999 29.43Z" fill="#0A0908"/>
</g>
<defs>
<clipPath id="clip0_130_1126">
<rect width="40.02" height="40" fill="white" transform="matrix(1 0 0 -1 0.779984 40.23)"/>
</clipPath>
</defs>
</svg>
