<svg width="22" height="24" viewBox="0 0 22 24" fill="none" xmlns="http://www.w3.org/2000/svg">
<path d="M18.36 3.04C17.3466 2.08 16.2133 1.33333 14.96 0.799999C13.7066 0.266665 12.3866 -1.90735e-06 11 -1.90735e-06C9.61331 -1.90735e-06 8.27998 0.266665 6.99998 0.799999C5.71998 1.33333 4.59998 2.08 3.63998 3.04C2.67998 4 1.93331 5.12 1.39998 6.4C0.866642 7.68 0.599976 9.01333 0.599976 10.4C0.599976 11.7867 0.866642 13.1067 1.39998 14.36C1.93331 15.6133 2.67998 16.7467 3.63998 17.76L9.15998 23.28C9.63998 23.76 10.24 24 10.96 24C11.68 24 12.3066 23.76 12.84 23.28L18.36 17.76C19.32 16.7467 20.0666 15.6133 20.6 14.36C21.1333 13.1067 21.4 11.7867 21.4 10.4C21.4 9.01333 21.1333 7.68 20.6 6.4C20.0666 5.12 19.32 4 18.36 3.04ZM17.32 16.72L11.8 22.24C11.5866 22.4533 11.32 22.56 11 22.56C10.68 22.56 10.3866 22.4533 10.12 22.24L4.59998 16.72C3.74664 15.8667 3.10664 14.8933 2.67998 13.8C2.25331 12.7067 2.03998 11.56 2.03998 10.36C2.03998 9.16 2.25331 8.01333 2.67998 6.92C3.10664 5.82667 3.74664 4.86666 4.59998 4.04C5.45331 3.21333 6.42664 2.57333 7.51998 2.12C8.61331 1.66667 9.75998 1.44 10.96 1.44C12.16 1.44 13.3066 1.66667 14.4 2.12C15.4933 2.57333 16.4666 3.2 17.32 4C18.4933 5.17333 19.28 6.53333 19.68 8.08C20.08 9.62667 20.08 11.1733 19.68 12.72C19.28 14.2667 18.4933 15.6 17.32 16.72ZM11 6.64C9.98664 6.64 9.10664 7.01333 8.35998 7.76C7.61331 8.50667 7.23998 9.38667 7.23998 10.4C7.23998 11.4133 7.61331 12.28 8.35998 13C9.10664 13.72 9.98664 14.08 11 14.08C12.0133 14.08 12.88 13.72 13.6 13C14.32 12.28 14.68 11.4133 14.68 10.4C14.68 9.38667 14.32 8.50667 13.6 7.76C12.88 7.01333 12.0133 6.64 11 6.64ZM11 12.72C10.36 12.72 9.81331 12.4933 9.35998 12.04C8.90664 11.5867 8.67998 11.04 8.67998 10.4C8.67998 9.76 8.90664 9.21333 9.35998 8.76C9.81331 8.30667 10.36 8.08 11 8.08C11.64 8.08 12.1866 8.30667 12.64 8.76C13.0933 9.21333 13.32 9.76 13.32 10.4C13.32 11.04 13.0933 11.5867 12.64 12.04C12.1866 12.4933 11.64 12.72 11 12.72Z" fill="#7C7C7C"/>
</svg>
