<svg width="218" height="49" viewBox="0 0 218 49" fill="none" xmlns="http://www.w3.org/2000/svg">
<path d="M5.89286 35L0 38.2603V49H33V43.6301H5.89286V35Z" fill="#0A0908"/>
<path d="M33 32V25.8596L16.5 14.7005L0 25.4962V31.9914L16.5 21.132L33 32ZM5.76506 16.7678V5.74238H32.006V0H0V20.9023L5.76506 16.7678Z" fill="#0A0908"/>
<rect x="14" y="29" width="3" height="3" fill="#403D39"/>
<rect x="18" y="29" width="3" height="3" fill="#403D39"/>
<rect x="14" y="33" width="3" height="3" fill="#403D39"/>
<rect x="18" y="33" width="3" height="3" fill="#403D39"/>
<path d="M46.92 32V17.888H62.328V21.152H51.6V23.144H59.544V26.48H51.6V28.712H61.944L63.384 31.736C63.384 31.8 63.168 31.864 62.736 31.928C62.304 31.976 61.56 32 60.504 32H46.92ZM68.8832 32C67.4752 32 66.4672 31.736 65.8592 31.208C65.2512 30.68 64.9472 29.8 64.9472 28.568C64.9472 27.432 65.2592 26.608 65.8832 26.096C66.5232 25.584 67.5232 25.328 68.8832 25.328H69.6272C70.5232 25.328 71.3792 25.36 72.1952 25.424C73.0112 25.488 73.7152 25.552 74.3072 25.616V25.232C74.3072 25.008 74.2592 24.792 74.1632 24.584C74.0672 24.376 73.7312 24.272 73.1552 24.272H71.9552C70.2112 24.272 68.8672 24.304 67.9232 24.368C66.9792 24.416 66.3952 24.464 66.1712 24.512L65.9072 21.968C65.9072 21.808 66.1872 21.68 66.7472 21.584C67.3072 21.472 68.0752 21.392 69.0512 21.344C70.0272 21.28 71.1392 21.248 72.3872 21.248H74.7872C75.8432 21.248 76.6512 21.408 77.2112 21.728C77.7712 22.032 78.1552 22.448 78.3632 22.976C78.5712 23.504 78.6752 24.112 78.6752 24.8V32H75.2672L74.3312 31.52C73.9472 31.6 73.3312 31.704 72.4832 31.832C71.6512 31.944 70.6912 32 69.6032 32H68.8832ZM70.2752 29.168H73.5872C73.9392 29.168 74.1472 29.136 74.2112 29.072C74.2752 29.008 74.3072 28.808 74.3072 28.472V27.632H70.2752C69.9712 27.632 69.7472 27.688 69.6032 27.8C69.4592 27.912 69.3872 28.128 69.3872 28.448C69.3872 28.752 69.4592 28.952 69.6032 29.048C69.7472 29.128 69.9712 29.168 70.2752 29.168ZM84.1442 32C83.0722 32 82.3122 31.944 81.8642 31.832C81.4162 31.72 81.1922 31.608 81.1922 31.496L82.1522 28.976C82.3442 29.024 82.9122 29.08 83.8562 29.144C84.8162 29.192 86.2082 29.216 88.0322 29.216H89.7362C90.1362 29.216 90.3842 29.176 90.4802 29.096C90.5922 29 90.6482 28.84 90.6482 28.616C90.6482 28.344 90.5842 28.176 90.4562 28.112C90.3442 28.032 90.1042 27.992 89.7362 27.992H84.8642C83.6962 27.992 82.7922 27.776 82.1522 27.344C81.5122 26.896 81.1922 26.104 81.1922 24.968V24.488C81.1922 23.896 81.2722 23.36 81.4322 22.88C81.5922 22.384 81.9362 21.992 82.4642 21.704C82.9922 21.4 83.7922 21.248 84.8642 21.248H91.9682C92.9282 21.248 93.6082 21.304 94.0082 21.416C94.4082 21.528 94.6082 21.64 94.6082 21.752L94.3682 24.296C94.1122 24.248 93.4642 24.2 92.4242 24.152C91.4002 24.088 89.9842 24.056 88.1762 24.056H86.4722C86.0722 24.056 85.8162 24.104 85.7042 24.2C85.6082 24.28 85.5602 24.424 85.5602 24.632C85.5602 24.84 85.6082 24.992 85.7042 25.088C85.8162 25.168 86.0722 25.208 86.4722 25.208H91.4402C92.6882 25.208 93.6082 25.48 94.2002 26.024C94.7922 26.568 95.0882 27.328 95.0882 28.304V28.76C95.0882 29.336 95.0162 29.872 94.8722 30.368C94.7282 30.848 94.4002 31.24 93.8882 31.544C93.3762 31.848 92.5602 32 91.4402 32H84.1442ZM99.2093 36.704C98.3293 36.704 97.5293 36.616 96.8093 36.44C96.0892 36.28 95.5932 36.12 95.3212 35.96L96.2812 33.008C96.7613 33.216 97.2733 33.376 97.8173 33.488C98.3773 33.6 98.9053 33.656 99.4013 33.656H99.6653C101.057 33.656 102.065 33.104 102.689 32H101.225L96.5213 21.248H101.345L103.409 27.632L103.769 29.096H104.009L104.369 27.632L106.457 21.248H111.209L110.825 22.712C110.521 23.336 110.169 24.056 109.769 24.872C109.385 25.672 108.985 26.504 108.569 27.368C108.153 28.232 107.745 29.064 107.345 29.864C106.961 30.664 106.617 31.376 106.313 32C105.529 33.6 104.625 34.784 103.601 35.552C102.577 36.32 101.329 36.704 99.8573 36.704H99.2093ZM113.365 32V17.888H128.773V21.152H118.045V23.144H125.989V26.48H118.045V28.712H128.389L129.829 31.736C129.829 31.8 129.613 31.864 129.181 31.928C128.749 31.976 128.005 32 126.949 32H113.365ZM134.465 32C133.393 32 132.633 31.944 132.185 31.832C131.737 31.72 131.513 31.608 131.513 31.496L132.473 28.976C132.665 29.024 133.233 29.08 134.177 29.144C135.137 29.192 136.529 29.216 138.353 29.216H140.057C140.457 29.216 140.705 29.176 140.801 29.096C140.913 29 140.969 28.84 140.969 28.616C140.969 28.344 140.905 28.176 140.777 28.112C140.665 28.032 140.425 27.992 140.057 27.992H135.185C134.017 27.992 133.113 27.776 132.473 27.344C131.833 26.896 131.513 26.104 131.513 24.968V24.488C131.513 23.896 131.593 23.36 131.753 22.88C131.913 22.384 132.257 21.992 132.785 21.704C133.313 21.4 134.113 21.248 135.185 21.248H142.289C143.249 21.248 143.929 21.304 144.329 21.416C144.729 21.528 144.929 21.64 144.929 21.752L144.689 24.296C144.433 24.248 143.785 24.2 142.745 24.152C141.721 24.088 140.305 24.056 138.497 24.056H136.793C136.393 24.056 136.137 24.104 136.025 24.2C135.929 24.28 135.881 24.424 135.881 24.632C135.881 24.84 135.929 24.992 136.025 25.088C136.137 25.168 136.393 25.208 136.793 25.208H141.761C143.009 25.208 143.929 25.48 144.521 26.024C145.113 26.568 145.409 27.328 145.409 28.304V28.76C145.409 29.336 145.337 29.872 145.193 30.368C145.049 30.848 144.721 31.24 144.209 31.544C143.697 31.848 142.881 32 141.761 32H134.465ZM152.218 32C151.002 32 150.17 31.744 149.722 31.232C149.274 30.72 149.05 29.952 149.05 28.928V24.272H147.082V21.248H148.09C148.362 21.248 148.578 21.2 148.738 21.104C148.914 20.992 149.026 20.8 149.074 20.528L149.53 17.96H153.466V21.248H157.474V24.272H153.466V27.992C153.466 28.392 153.562 28.656 153.754 28.784C153.946 28.912 154.234 28.976 154.618 28.976H157.018L157.498 31.76C157.162 31.808 156.65 31.864 155.962 31.928C155.274 31.976 154.522 32 153.706 32H152.218ZM162.985 32C161.577 32 160.569 31.736 159.961 31.208C159.353 30.68 159.049 29.8 159.049 28.568C159.049 27.432 159.361 26.608 159.985 26.096C160.625 25.584 161.625 25.328 162.985 25.328H163.729C164.625 25.328 165.481 25.36 166.297 25.424C167.113 25.488 167.817 25.552 168.409 25.616V25.232C168.409 25.008 168.361 24.792 168.265 24.584C168.169 24.376 167.833 24.272 167.257 24.272H166.057C164.313 24.272 162.969 24.304 162.025 24.368C161.081 24.416 160.497 24.464 160.273 24.512L160.009 21.968C160.009 21.808 160.289 21.68 160.849 21.584C161.409 21.472 162.177 21.392 163.153 21.344C164.129 21.28 165.241 21.248 166.489 21.248H168.889C169.945 21.248 170.753 21.408 171.313 21.728C171.873 22.032 172.257 22.448 172.465 22.976C172.673 23.504 172.777 24.112 172.777 24.8V32H169.369L168.433 31.52C168.049 31.6 167.433 31.704 166.585 31.832C165.753 31.944 164.793 32 163.705 32H162.985ZM164.377 29.168H167.689C168.041 29.168 168.249 29.136 168.313 29.072C168.377 29.008 168.409 28.808 168.409 28.472V27.632H164.377C164.073 27.632 163.849 27.688 163.705 27.8C163.561 27.912 163.489 28.128 163.489 28.448C163.489 28.752 163.561 28.952 163.705 29.048C163.849 29.128 164.073 29.168 164.377 29.168ZM179.71 32C178.494 32 177.662 31.744 177.214 31.232C176.766 30.72 176.542 29.952 176.542 28.928V24.272H174.574V21.248H175.582C175.854 21.248 176.07 21.2 176.23 21.104C176.406 20.992 176.518 20.8 176.566 20.528L177.022 17.96H180.958V21.248H184.966V24.272H180.958V27.992C180.958 28.392 181.054 28.656 181.246 28.784C181.438 28.912 181.726 28.976 182.11 28.976H184.51L184.99 31.76C184.654 31.808 184.142 31.864 183.454 31.928C182.766 31.976 182.014 32 181.198 32H179.71ZM190.573 32C189.517 32 188.701 31.848 188.125 31.544C187.565 31.24 187.181 30.824 186.973 30.296C186.765 29.752 186.661 29.128 186.661 28.424V24.8C186.661 24.16 186.765 23.576 186.973 23.048C187.197 22.504 187.589 22.072 188.149 21.752C188.709 21.416 189.517 21.248 190.573 21.248H195.541C196.789 21.248 197.741 21.4 198.397 21.704C199.069 21.992 199.525 22.408 199.765 22.952C200.021 23.48 200.149 24.096 200.149 24.8V27.872H195.949C194.509 27.872 193.413 27.84 192.661 27.776C191.925 27.712 191.405 27.672 191.101 27.656V28.016C191.085 28.656 191.469 28.976 192.253 28.976H192.997C194.277 28.976 195.461 28.952 196.549 28.904C197.637 28.84 198.445 28.784 198.973 28.736L200.413 31.016C200.413 31.176 200.277 31.328 200.005 31.472C199.733 31.616 199.253 31.744 198.565 31.856C197.893 31.952 196.933 32 195.685 32H190.573ZM191.101 25.568H195.709V25.232C195.709 24.912 195.677 24.688 195.613 24.56C195.565 24.432 195.397 24.352 195.109 24.32C194.821 24.288 194.333 24.272 193.645 24.272H192.253C191.485 24.272 191.101 24.592 191.101 25.232V25.568ZM205.527 32C204.455 32 203.695 31.944 203.247 31.832C202.799 31.72 202.575 31.608 202.575 31.496L203.535 28.976C203.727 29.024 204.295 29.08 205.239 29.144C206.199 29.192 207.591 29.216 209.415 29.216H211.119C211.519 29.216 211.767 29.176 211.863 29.096C211.975 29 212.031 28.84 212.031 28.616C212.031 28.344 211.967 28.176 211.839 28.112C211.727 28.032 211.487 27.992 211.119 27.992H206.247C205.079 27.992 204.175 27.776 203.535 27.344C202.895 26.896 202.575 26.104 202.575 24.968V24.488C202.575 23.896 202.655 23.36 202.815 22.88C202.975 22.384 203.319 21.992 203.847 21.704C204.375 21.4 205.175 21.248 206.247 21.248H213.351C214.311 21.248 214.991 21.304 215.391 21.416C215.791 21.528 215.991 21.64 215.991 21.752L215.751 24.296C215.495 24.248 214.847 24.2 213.807 24.152C212.783 24.088 211.367 24.056 209.559 24.056H207.855C207.455 24.056 207.199 24.104 207.087 24.2C206.991 24.28 206.943 24.424 206.943 24.632C206.943 24.84 206.991 24.992 207.087 25.088C207.199 25.168 207.455 25.208 207.855 25.208H212.823C214.071 25.208 214.991 25.48 215.583 26.024C216.175 26.568 216.471 27.328 216.471 28.304V28.76C216.471 29.336 216.399 29.872 216.255 30.368C216.111 30.848 215.783 31.24 215.271 31.544C214.759 31.848 213.943 32 212.823 32H205.527Z" fill="#0A0908"/>
</svg>
