<svg width="217" height="50" viewBox="0 0 217 50" fill="none" xmlns="http://www.w3.org/2000/svg">
<path d="M5.89286 35.5L0 38.7603V49.5H33V44.1301H5.89286V35.5Z" fill="#0A0908"/>
<path d="M33 32.5V26.3596L16.5 15.2005L0 25.9962V32.4914L16.5 21.632L33 32.5ZM5.76506 17.2678V6.24238H32.006V0.5H0V21.4023L5.76506 17.2678Z" fill="#0A0908"/>
<rect x="14" y="29.5" width="3" height="3" fill="#403D39"/>
<rect x="18" y="29.5" width="3" height="3" fill="#403D39"/>
<rect x="14" y="33.5" width="3" height="3" fill="#403D39"/>
<rect x="18" y="33.5" width="3" height="3" fill="#403D39"/>
<path d="M46.92 32.5V18.388H62.328V21.652H51.6V23.644H59.544V26.98H51.6V29.212H61.944L63.384 32.236C63.384 32.3 63.168 32.364 62.736 32.428C62.304 32.476 61.56 32.5 60.504 32.5H46.92ZM68.8832 32.5C67.4752 32.5 66.4672 32.236 65.8592 31.708C65.2512 31.18 64.9472 30.3 64.9472 29.068C64.9472 27.932 65.2592 27.108 65.8832 26.596C66.5232 26.084 67.5232 25.828 68.8832 25.828H69.6272C70.5232 25.828 71.3792 25.86 72.1952 25.924C73.0112 25.988 73.7152 26.052 74.3072 26.116V25.732C74.3072 25.508 74.2592 25.292 74.1632 25.084C74.0672 24.876 73.7312 24.772 73.1552 24.772H71.9552C70.2112 24.772 68.8672 24.804 67.9232 24.868C66.9792 24.916 66.3952 24.964 66.1712 25.012L65.9072 22.468C65.9072 22.308 66.1872 22.18 66.7472 22.084C67.3072 21.972 68.0752 21.892 69.0512 21.844C70.0272 21.78 71.1392 21.748 72.3872 21.748H74.7872C75.8432 21.748 76.6512 21.908 77.2112 22.228C77.7712 22.532 78.1552 22.948 78.3632 23.476C78.5712 24.004 78.6752 24.612 78.6752 25.3V32.5H75.2672L74.3312 32.02C73.9472 32.1 73.3312 32.204 72.4832 32.332C71.6512 32.444 70.6912 32.5 69.6032 32.5H68.8832ZM70.2752 29.668H73.5872C73.9392 29.668 74.1472 29.636 74.2112 29.572C74.2752 29.508 74.3072 29.308 74.3072 28.972V28.132H70.2752C69.9712 28.132 69.7472 28.188 69.6032 28.3C69.4592 28.412 69.3872 28.628 69.3872 28.948C69.3872 29.252 69.4592 29.452 69.6032 29.548C69.7472 29.628 69.9712 29.668 70.2752 29.668ZM80.9522 32.5V30.34L87.0242 24.796H81.4322V21.748H93.6722V23.908L87.1442 29.476H93.4082L94.6082 32.236C94.6082 32.3 94.3682 32.364 93.8882 32.428C93.4082 32.476 92.6002 32.5 91.4642 32.5H80.9522ZM98.0139 37.204C97.1339 37.204 96.3339 37.116 95.6139 36.94C94.8939 36.78 94.3979 36.62 94.1259 36.46L95.0859 33.508C95.5659 33.716 96.0779 33.876 96.6219 33.988C97.1819 34.1 97.7099 34.156 98.2059 34.156H98.4699C99.8619 34.156 100.87 33.604 101.494 32.5H100.03L95.3259 21.748H100.15L102.214 28.132L102.574 29.596H102.814L103.174 28.132L105.262 21.748H110.014L109.63 23.212C109.326 23.836 108.974 24.556 108.574 25.372C108.19 26.172 107.79 27.004 107.374 27.868C106.958 28.732 106.55 29.564 106.15 30.364C105.766 31.164 105.422 31.876 105.118 32.5C104.334 34.1 103.43 35.284 102.406 36.052C101.382 36.82 100.134 37.204 98.6619 37.204H98.0139ZM112.17 32.5V18.388H127.578V21.652H116.85V23.644H124.794V26.98H116.85V29.212H127.194L128.634 32.236C128.634 32.3 128.418 32.364 127.986 32.428C127.554 32.476 126.81 32.5 125.754 32.5H112.17ZM133.269 32.5C132.197 32.5 131.437 32.444 130.989 32.332C130.541 32.22 130.317 32.108 130.317 31.996L131.277 29.476C131.469 29.524 132.037 29.58 132.981 29.644C133.941 29.692 135.333 29.716 137.157 29.716H138.861C139.261 29.716 139.509 29.676 139.605 29.596C139.717 29.5 139.773 29.34 139.773 29.116C139.773 28.844 139.709 28.676 139.581 28.612C139.469 28.532 139.229 28.492 138.861 28.492H133.989C132.821 28.492 131.917 28.276 131.277 27.844C130.637 27.396 130.317 26.604 130.317 25.468V24.988C130.317 24.396 130.397 23.86 130.557 23.38C130.717 22.884 131.061 22.492 131.589 22.204C132.117 21.9 132.917 21.748 133.989 21.748H141.093C142.053 21.748 142.733 21.804 143.133 21.916C143.533 22.028 143.733 22.14 143.733 22.252L143.493 24.796C143.237 24.748 142.589 24.7 141.549 24.652C140.525 24.588 139.109 24.556 137.301 24.556H135.597C135.197 24.556 134.941 24.604 134.829 24.7C134.733 24.78 134.685 24.924 134.685 25.132C134.685 25.34 134.733 25.492 134.829 25.588C134.941 25.668 135.197 25.708 135.597 25.708H140.565C141.813 25.708 142.733 25.98 143.325 26.524C143.917 27.068 144.213 27.828 144.213 28.804V29.26C144.213 29.836 144.141 30.372 143.997 30.868C143.853 31.348 143.525 31.74 143.013 32.044C142.501 32.348 141.685 32.5 140.565 32.5H133.269ZM151.022 32.5C149.806 32.5 148.974 32.244 148.526 31.732C148.078 31.22 147.854 30.452 147.854 29.428V24.772H145.886V21.748H146.894C147.166 21.748 147.382 21.7 147.542 21.604C147.718 21.492 147.83 21.3 147.878 21.028L148.334 18.46H152.27V21.748H156.278V24.772H152.27V28.492C152.27 28.892 152.366 29.156 152.558 29.284C152.75 29.412 153.038 29.476 153.422 29.476H155.822L156.302 32.26C155.966 32.308 155.454 32.364 154.766 32.428C154.078 32.476 153.326 32.5 152.51 32.5H151.022ZM161.789 32.5C160.381 32.5 159.373 32.236 158.765 31.708C158.157 31.18 157.853 30.3 157.853 29.068C157.853 27.932 158.165 27.108 158.789 26.596C159.429 26.084 160.429 25.828 161.789 25.828H162.533C163.429 25.828 164.285 25.86 165.101 25.924C165.917 25.988 166.621 26.052 167.213 26.116V25.732C167.213 25.508 167.165 25.292 167.069 25.084C166.973 24.876 166.637 24.772 166.061 24.772H164.861C163.117 24.772 161.773 24.804 160.829 24.868C159.885 24.916 159.301 24.964 159.077 25.012L158.813 22.468C158.813 22.308 159.093 22.18 159.653 22.084C160.213 21.972 160.981 21.892 161.957 21.844C162.933 21.78 164.045 21.748 165.293 21.748H167.693C168.749 21.748 169.557 21.908 170.117 22.228C170.677 22.532 171.061 22.948 171.269 23.476C171.477 24.004 171.581 24.612 171.581 25.3V32.5H168.173L167.237 32.02C166.853 32.1 166.237 32.204 165.389 32.332C164.557 32.444 163.597 32.5 162.509 32.5H161.789ZM163.181 29.668H166.493C166.845 29.668 167.053 29.636 167.117 29.572C167.181 29.508 167.213 29.308 167.213 28.972V28.132H163.181C162.877 28.132 162.653 28.188 162.509 28.3C162.365 28.412 162.293 28.628 162.293 28.948C162.293 29.252 162.365 29.452 162.509 29.548C162.653 29.628 162.877 29.668 163.181 29.668ZM178.514 32.5C177.298 32.5 176.466 32.244 176.018 31.732C175.57 31.22 175.346 30.452 175.346 29.428V24.772H173.378V21.748H174.386C174.658 21.748 174.874 21.7 175.034 21.604C175.21 21.492 175.322 21.3 175.37 21.028L175.826 18.46H179.762V21.748H183.77V24.772H179.762V28.492C179.762 28.892 179.858 29.156 180.05 29.284C180.242 29.412 180.53 29.476 180.914 29.476H183.314L183.794 32.26C183.458 32.308 182.946 32.364 182.258 32.428C181.57 32.476 180.818 32.5 180.002 32.5H178.514ZM189.378 32.5C188.322 32.5 187.506 32.348 186.93 32.044C186.37 31.74 185.986 31.324 185.778 30.796C185.57 30.252 185.466 29.628 185.466 28.924V25.3C185.466 24.66 185.57 24.076 185.778 23.548C186.002 23.004 186.394 22.572 186.954 22.252C187.514 21.916 188.322 21.748 189.378 21.748H194.346C195.594 21.748 196.546 21.9 197.202 22.204C197.874 22.492 198.33 22.908 198.57 23.452C198.826 23.98 198.954 24.596 198.954 25.3V28.372H194.754C193.314 28.372 192.218 28.34 191.466 28.276C190.73 28.212 190.21 28.172 189.906 28.156V28.516C189.89 29.156 190.274 29.476 191.058 29.476H191.802C193.082 29.476 194.266 29.452 195.354 29.404C196.442 29.34 197.25 29.284 197.778 29.236L199.218 31.516C199.218 31.676 199.082 31.828 198.81 31.972C198.538 32.116 198.058 32.244 197.37 32.356C196.698 32.452 195.738 32.5 194.49 32.5H189.378ZM189.906 26.068H194.514V25.732C194.514 25.412 194.482 25.188 194.418 25.06C194.37 24.932 194.202 24.852 193.914 24.82C193.626 24.788 193.138 24.772 192.45 24.772H191.058C190.29 24.772 189.906 25.092 189.906 25.732V26.068ZM204.332 32.5C203.26 32.5 202.5 32.444 202.052 32.332C201.604 32.22 201.38 32.108 201.38 31.996L202.34 29.476C202.532 29.524 203.1 29.58 204.044 29.644C205.004 29.692 206.396 29.716 208.22 29.716H209.924C210.324 29.716 210.572 29.676 210.668 29.596C210.78 29.5 210.836 29.34 210.836 29.116C210.836 28.844 210.772 28.676 210.644 28.612C210.532 28.532 210.292 28.492 209.924 28.492H205.052C203.884 28.492 202.98 28.276 202.34 27.844C201.7 27.396 201.38 26.604 201.38 25.468V24.988C201.38 24.396 201.46 23.86 201.62 23.38C201.78 22.884 202.124 22.492 202.652 22.204C203.18 21.9 203.98 21.748 205.052 21.748H212.156C213.116 21.748 213.796 21.804 214.196 21.916C214.596 22.028 214.796 22.14 214.796 22.252L214.556 24.796C214.3 24.748 213.652 24.7 212.612 24.652C211.588 24.588 210.172 24.556 208.364 24.556H206.66C206.26 24.556 206.004 24.604 205.892 24.7C205.796 24.78 205.748 24.924 205.748 25.132C205.748 25.34 205.796 25.492 205.892 25.588C206.004 25.668 206.26 25.708 206.66 25.708H211.628C212.876 25.708 213.796 25.98 214.388 26.524C214.98 27.068 215.276 27.828 215.276 28.804V29.26C215.276 29.836 215.204 30.372 215.06 30.868C214.916 31.348 214.588 31.74 214.076 32.044C213.564 32.348 212.748 32.5 211.628 32.5H204.332Z" fill="#0A0908"/>
</svg>
