<svg width="32" height="33" viewBox="0 0 32 33" fill="none" xmlns="http://www.w3.org/2000/svg">
<path d="M24 21.94C22.9867 21.94 22.08 22.34 21.3867 22.9666L11.88 17.4333C11.9467 17.1266 12 16.82 12 16.5C12 16.18 11.9467 15.8733 11.88 15.5666L21.28 10.0866C22 10.7533 22.9467 11.1666 24 11.1666C26.2133 11.1666 28 9.37996 28 7.16663C28 4.95329 26.2133 3.16663 24 3.16663C21.7867 3.16663 20 4.95329 20 7.16663C20 7.48663 20.0533 7.79329 20.12 8.09996L10.72 13.58C10 12.9133 9.05333 12.5 8 12.5C5.78667 12.5 4 14.2866 4 16.5C4 18.7133 5.78667 20.5 8 20.5C9.05333 20.5 10 20.0866 10.72 19.42L20.2133 24.9666C20.1467 25.2466 20.1067 25.54 20.1067 25.8333C20.1067 27.98 21.8533 29.7266 24 29.7266C26.1467 29.7266 27.8933 27.98 27.8933 25.8333C27.8933 23.6866 26.1467 21.94 24 21.94ZM24 5.83329C24.7333 5.83329 25.3333 6.43329 25.3333 7.16663C25.3333 7.89996 24.7333 8.49996 24 8.49996C23.2667 8.49996 22.6667 7.89996 22.6667 7.16663C22.6667 6.43329 23.2667 5.83329 24 5.83329ZM8 17.8333C7.26667 17.8333 6.66667 17.2333 6.66667 16.5C6.66667 15.7666 7.26667 15.1666 8 15.1666C8.73333 15.1666 9.33333 15.7666 9.33333 16.5C9.33333 17.2333 8.73333 17.8333 8 17.8333ZM24 27.1933C23.2667 27.1933 22.6667 26.5933 22.6667 25.86C22.6667 25.1266 23.2667 24.5266 24 24.5266C24.7333 24.5266 25.3333 25.1266 25.3333 25.86C25.3333 26.5933 24.7333 27.1933 24 27.1933Z" fill="#BF0603"/>
</svg>
